<svg xmlns="http://www.w3.org/2000/svg" width="658.943" height="658.943" viewBox="0 0 658.943 658.943"><defs><style>.a{fill:#ffba08;}.b{fill:none;}.c{fill:#fff;}</style></defs><path class="a" d="M320.922,658.808c-14.074-.564-27.362-6.114-36.883-19.167a42.631,42.631,0,0,1-5.721-12.052c-.828-2.519-1.994-4.925-2.964-7.4-1.538-3.922-3.266-7.792-4.475-11.816-.737-2.454-.529-5.178-.984-7.738a14.456,14.456,0,0,0-1.582-4.494c-.914-1.624-1.449-3.057-.511-4.872a4.155,4.155,0,0,0,.15-2.485,16.34,16.34,0,0,0-3.114-7.272c-2.44-3.1-2.543-6.946-2.858-10.591-.7-8.125-3.087-15.751-6.085-23.252-.771-1.928-1.2-3.99-1.919-5.942a3.444,3.444,0,0,0-1.383-1.758,97.33,97.33,0,0,1-34.709-31.5c-5.906-8.659-9.169-18.4-11.354-28.582-3.16-14.728-6.477-29.422-9.745-44.126a5.346,5.346,0,0,0-.652-1.588c-6.061-10-9.374-20.788-9.049-32.55a51.379,51.379,0,0,1,6.595-24.079,33.64,33.64,0,0,0,3.516-9c2.021-8.719,6.13-16.475,11.113-23.806,3.186-4.686,3.124-4.649,2.695-10.157a55.268,55.268,0,0,1,6.536-31.519c1.467-2.673,3.578-4.99,5.346-7.5a2.254,2.254,0,0,0,.459-1.5c-.7-3.681-1.527-7.337-2.22-11.018-.747-3.977-1.554-7.955-2.038-11.968a44.612,44.612,0,0,1,1.193-16,51.939,51.939,0,0,1,10.781-21.177,3.325,3.325,0,0,0,.763-2.464c-2.875-11.953-.676-23.322,3.666-34.508a112.342,112.342,0,0,1,19.877-33.081,2.438,2.438,0,0,0,.355-2.706,44.491,44.491,0,0,1-2.477-16.414c.57-9.19,1.457-18.383,4.768-27.088a41.469,41.469,0,0,1,17.33-20.921,145.319,145.319,0,0,1,14.144-7.334c1.364-.649,1.763-1.125,1.524-2.641A46.144,46.144,0,0,1,293.7,62.223c2.95-7.55,8.458-12.143,15.083-16.073,6.795-4.03,14.287-5.017,21.868-5.367,4.223-.2,8.491.628,12.742.941a1.338,1.338,0,0,0,1.1-.533c2.07-5.448,5.862-9.674,9.715-13.86,3.808-4.138,7.638-8.256,11.428-12.411A52.939,52.939,0,0,1,381.531,3.014a4.143,4.143,0,0,0,1.544-1.083c.961-1.319,1.486-1.172,2.282.217,1.85,3.228,1.638,6.586.7,9.911-1.744,6.189-3.8,12.289-5.521,18.485-2.382,8.586-3.214,17.414-3.765,26.281a31.027,31.027,0,0,1-4.955,14.555,11.862,11.862,0,0,0-.57,1.179,7.211,7.211,0,0,0,1.349.172,60.866,60.866,0,0,1,19.469,1.931,40.48,40.48,0,0,1,6.929,3.1c.4.193.643.784.862,1.238a18.445,18.445,0,0,1,.858,13.076c-1.053,3.944.191,6.6,3.1,9.109a34.852,34.852,0,0,1,5.3,5.958,6.255,6.255,0,0,1,1.13,3.879c-.284,3.317-1.213,6.417-3.846,8.856a57.253,57.253,0,0,1-9.415,7.665,3.632,3.632,0,0,0-1.3,2.039c-.506,1.777-.7,3.646-1.246,5.408-.457,1.474-.025,1.911,1.409,2.135,3.665.572,7.311,1.268,10.952,1.979,1.243.242,2.442.7,3.671,1.02,2.873.752,3.868,2.971,4.1,5.572s.106,5.219.248,7.824a66.075,66.075,0,0,0,.874,10.35c.387,1.785,2.018,3.427,3.387,4.843,2.533,2.62,5.662,4.737,7.863,7.589,3.5,4.543,4.4,10.01-.4,14.286-2.293,2.043-4.667,4-7,6a14.865,14.865,0,0,0-1.286,1.168c-1.493,1.612-1.343,1.484.484,2.529,4.987,2.854,10.362,5.25,13.338,10.681,1.777,3.242,3.787,6.356,5.592,9.584a6.175,6.175,0,0,0,3.5,3.08,81.917,81.917,0,0,1,12.16,5.02,22.533,22.533,0,0,1,7.006,6.33c1.636,2.254,1.049,5.283-.1,7.844a89.466,89.466,0,0,1-4.377,8.695,20.811,20.811,0,0,0-2.307,14.932c.348,1.874.406,3.8.6,5.7a2.835,2.835,0,0,0,.182,1.181c2.268,3.506,1.685,7.474,1.906,11.318.145,2.532.352,5.062.56,7.59.282,3.436,2.626,5.55,4.991,7.613,2.488,2.171,5.048,4.26,7.549,6.418a5.675,5.675,0,0,1,1.2,1.463c1.68,2.939,1.113,5.753-1.406,8.654-3.494,4.023-6.9,8.1-9.2,13.008-1.657,3.537-1.907,7.224-1.881,11.017.023,3.356-.121,6.714-.115,10.07a15.737,15.737,0,0,0,.422,2.867c.8,4.222-.67,8.13-1.621,12.114q-.705,2.952-1.29,5.932c-.644,3.24.136,6.314,1.1,9.383,1.4,4.461,3.344,8.784,3.184,13.632-.169,5.083.071,10.192-.341,15.251a54.728,54.728,0,0,1-8.278,24.5c-2.006,3.246-2.344,6.882-3.183,10.4-3.482,14.6-6.584,29.3-10.347,43.833-3.888,15.013-12.266,27.46-23.715,37.787-6.889,6.214-14.011,12.182-22.33,16.493a2.109,2.109,0,0,0-.983.9c-.817,2.033-1.549,4.1-2.312,6.155-.04.108-.15.234-.123.319,1.058,3.329-1.65,5.626-2.309,8.481-.907,3.931-1.881,7.85-2.663,11.806-.5,2.553-.541,5.2-1.11,7.738a61.686,61.686,0,0,1-2.175,6.382c-.658,1.919-1.287,3.849-1.938,5.771a6.239,6.239,0,0,0-.254,4.2,3.764,3.764,0,0,1-.867,2.962,9.248,9.248,0,0,0-2.012,6.448c.041,5.665-2.071,10.781-4.626,15.677a62.6,62.6,0,0,0-4.213,9.688c-4.271,13.181-13.449,21.638-26.172,26.506C334.257,657.82,328.488,658.724,320.922,658.808Z"/><path class="b" d="M314.2,283.745a9.579,9.579,0,0,0-9.32,9.767,8.224,8.224,0,0,0,8.294,8.033,9.5,9.5,0,0,0,9.328-9.316A8.378,8.378,0,0,0,314.2,283.745Zm-3.007,7.06a2,2,0,1,1,2-2A2,2,0,0,1,311.2,290.805Z"/><path class="b" d="M418.963,271.218c-5.181-.336-9.648,4.334-9.521,9.583.108,4.5,2.238,7.689,7.084,7.977,4.611.274,8.8-4.553,8.834-10.853C425.241,274.715,423.408,271.506,418.963,271.218Zm-3.768,7.587a2,2,0,1,1,2-2A2,2,0,0,1,415.2,278.805Z"/><path class="c" d="M328.142,259.505c-21.592.546-41.861,5.89-60.177,17.387-2.986,1.874-5.96,6.628-5.895,9.992.222,11.463,5.447,21.1,14.644,28.05,13.1,9.9,27.388,11.23,42.216,4.238,15.78-7.441,23.417-20.4,24.68-37.593-.27-2.307-.506-4.639-.822-6.961C341.584,265.777,335.527,259.318,328.142,259.505Zm-14.966,42.04a8.224,8.224,0,0,1-8.294-8.033,9.579,9.579,0,0,1,9.32-9.767,8.378,8.378,0,0,1,8.3,8.484A9.5,9.5,0,0,1,313.176,301.545Z"/><path class="c" d="M431.016,253.542a69.408,69.408,0,0,0-20.465-2.375,280.791,280.791,0,0,0-33.364,3.334c-10.85,1.718-15.956,3.873-12.307,15.979a12.988,12.988,0,0,1,.315,2.325c-.657,15.187,8.226,25.1,19.715,32.593,4.982,3.249,11.3,5.13,17.261,6.063,16.138,2.529,32.03-15.211,35.544-26.364l2.109-7.652a55.317,55.317,0,0,0,.487-5.983C439.667,263.915,439.706,255.9,431.016,253.542Zm-14.49,35.236c-4.846-.288-6.976-3.472-7.084-7.977-.127-5.249,4.34-9.919,9.521-9.583,4.445.288,6.278,3.5,6.4,6.707C425.33,284.225,421.137,289.052,416.526,288.778Z"/><circle class="c" cx="311.195" cy="288.805" r="2"/><circle class="c" cx="415.195" cy="276.805" r="2"/></svg>