<?xml version="1.0" standalone="no"?>
<!DOCTYPE svg PUBLIC "-//W3C//DTD SVG 20010904//EN"
 "http://www.w3.org/TR/2001/REC-SVG-20010904/DTD/svg10.dtd">
<svg version="1.0" xmlns="http://www.w3.org/2000/svg"
 width="512.000000pt" height="512.000000pt" viewBox="0 0 512.000000 512.000000"
 preserveAspectRatio="xMidYMid meet">
<metadata>
Created by potrace 1.14, written by Peter Selinger 2001-2017
</metadata>
<g transform="translate(0.000000,512.000000) scale(0.100000,-0.100000)"
fill="#000000" stroke="none">
<path d="M2924 5076 c-55 -37 -211 -200 -233 -245 -14 -29 -14 -29 -105 -29
-211 0 -330 -110 -329 -303 l0 -66 -51 -26 c-142 -70 -207 -158 -231 -315 -10
-64 -8 -174 4 -205 10 -25 6 -34 -35 -90 -103 -139 -159 -293 -152 -413 4 -63
2 -79 -14 -99 -35 -45 -70 -136 -75 -197 -4 -38 1 -96 12 -158 l18 -98 -32
-48 c-43 -65 -61 -133 -61 -228 0 -65 -4 -87 -21 -111 -33 -49 -69 -122 -89
-183 -10 -31 -30 -85 -44 -119 -49 -116 -45 -222 14 -353 17 -38 48 -149 74
-265 24 -110 54 -226 66 -257 40 -107 159 -244 272 -315 55 -34 58 -38 83
-114 15 -43 31 -109 36 -146 5 -37 17 -79 26 -93 10 -14 20 -47 24 -75 12 -93
28 -150 70 -258 49 -127 102 -191 196 -235 51 -24 70 -27 158 -27 92 0 105 3
167 33 79 38 139 101 167 176 10 28 31 76 45 106 14 30 26 66 26 80 0 14 6 45
14 70 26 81 45 154 55 215 6 33 18 80 26 105 8 25 17 57 20 72 3 19 27 42 82
81 86 60 185 158 227 225 42 67 60 123 110 337 31 134 59 226 84 280 34 73 37
89 40 188 3 80 0 123 -13 172 -16 56 -16 72 -5 127 7 35 12 104 11 153 -3 102
5 130 58 200 59 79 59 79 -9 148 -59 60 -60 62 -60 118 0 32 -5 70 -11 86 -6
15 -11 57 -11 93 -1 55 4 75 30 125 18 33 32 65 32 72 0 26 -54 72 -115 98
-58 25 -69 34 -96 81 -28 49 -40 62 -108 113 l-24 18 46 43 c68 61 63 99 -19
176 -40 37 -44 45 -45 90 0 27 -4 69 -7 94 -7 47 -9 49 -124 74 -39 9 -37 46
5 85 17 17 35 31 40 31 12 0 47 63 47 87 0 12 -18 42 -39 67 -38 44 -39 47
-34 103 4 47 2 62 -14 81 -20 25 -109 52 -176 52 l-38 0 16 30 c9 17 20 70 26
118 12 110 23 167 55 266 25 80 25 137 1 135 -7 0 -35 -15 -63 -33z m394
-1917 c30 -6 59 -20 73 -35 21 -23 24 -35 24 -112 0 -105 -22 -158 -96 -232
-86 -86 -188 -102 -300 -47 -59 28 -132 95 -156 141 -19 36 -44 186 -36 215
10 38 53 51 248 74 68 8 197 6 243 -4z m-695 -87 c78 -74 52 -266 -48 -367
-21 -20 -67 -51 -103 -68 -117 -55 -244 -36 -345 52 -74 66 -112 195 -74 253
38 56 252 139 406 158 89 11 131 4 164 -28z"/>
<path d="M3205 2985 c-29 -28 -31 -51 -9 -83 33 -47 104 -12 104 51 0 60 -51
77 -95 32z m35 -21 c0 -16 -16 -19 -25 -4 -8 13 4 32 16 25 5 -4 9 -13 9 -21z"/>
<path d="M2404 2902 c-15 -10 -34 -47 -34 -66 0 -24 37 -56 65 -56 53 0 87 77
49 114 -16 17 -61 21 -80 8z m27 -27 c-1 -15 -24 -12 -29 3 -3 9 2 13 12 10
10 -1 17 -7 17 -13z"/>
</g>
</svg>
