<svg xmlns="http://www.w3.org/2000/svg" width="286.579" height="238.195" viewBox="0 0 286.579 238.195"><defs><style>.a{fill:#fff;}.b{fill:#dbebff;}.c{fill:#c2ddff;}.d{fill:none;}</style></defs><path class="a" d="M357.015-292.464a.953.953,0,0,0-1.08-1.079H350.9a.986.986,0,0,1-1.08-1.081v-4.031a.969.969,0,0,1,1.08-1.08h18.43a.955.955,0,0,1,1.08,1.08v4.031a.97.97,0,0,1-1.08,1.081h-5.04a.968.968,0,0,0-1.079,1.079v16.846a.969.969,0,0,1-1.08,1.08H358.1a.985.985,0,0,1-1.08-1.08Z" transform="translate(-349.453 339.565)"/><path class="a" d="M377.68-299.735a.985.985,0,0,1,1.08,1.08v9a.984.984,0,0,0,1.079,1.08H383.3a.969.969,0,0,0,1.08-1.08v-9a.985.985,0,0,1,1.079-1.08h4.032a.955.955,0,0,1,1.08,1.08v23.037a.969.969,0,0,1-1.08,1.08h-4.032a.985.985,0,0,1-1.079-1.08V-281.3a.955.955,0,0,0-1.08-1.08h-3.456a.969.969,0,0,0-1.079,1.08v5.687a.97.97,0,0,1-1.08,1.08h-4.032a.985.985,0,0,1-1.08-1.08v-23.037a.955.955,0,0,1,1.08-1.08Z" transform="translate(-349.453 339.565)"/><path class="a" d="M410.366-299.735a.955.955,0,0,1,1.08,1.08v4.031a.97.97,0,0,1-1.08,1.081h-8.711a.969.969,0,0,0-1.08,1.079v1.152a.985.985,0,0,0,1.08,1.08h5.579a.955.955,0,0,1,1.08,1.08v4.031a.969.969,0,0,1-1.08,1.08h-5.579a.969.969,0,0,0-1.08,1.08v1.152a.985.985,0,0,0,1.08,1.08h8.711a.955.955,0,0,1,1.08,1.08v4.031a.955.955,0,0,1-1.08,1.08H395.247a.985.985,0,0,1-1.079-1.08v-23.037a.969.969,0,0,1,1.079-1.08Z" transform="translate(-349.453 339.565)"/><path class="b" d="M360.491-122.447c0-.044-.01-.493-.019-.252l-.027.718c0-.009,0-.018-.007-.027a1.714,1.714,0,0,0-.348-.638c-.139-.24-.2-.245-.186-.012-.02.166-.04.332-.061.5-.073.581-.171,1.158-.254,1.737l-9.822-1.492c-.049-.812-.117-1.623-.153-2.435-.014-.325-.024.409-.019.252-.016.5-.01,1-.011,1.494,0,1.023-.028,2.053.017,3.075q.147,3.321.432,6.635.149,1.719.339,3.435a12.27,12.27,0,0,0,.2,1.715c-.02.384.021.45.121.2l.236-.439.394-.732a4.567,4.567,0,0,1,.393-.731,5.013,5.013,0,0,1,.315.744q.309.747.591,1.505t.538,1.525a5.8,5.8,0,0,0,.249.769c.2.407.113.248.23-.165a6.913,6.913,0,0,1,.451-1.58c.2-.332.1-.142.163.139a5.462,5.462,0,0,1,.043.878l.18,3.686.006.089a40.606,40.606,0,0,1,2.029-8.432q.082-.233.169-.462c.045.2.089.406.134.61l.2.915c.075.339.012.851.21.29a6.307,6.307,0,0,0,.21-1.13,19.66,19.66,0,0,0,.187-2.438l.856.86.436.439c.041-.22.082-.439.121-.659q.237-1.317.44-2.641t.37-2.652c.061-.488.014-.883.389-.288a1.912,1.912,0,0,1,.142.322c0,.273,0,.545,0,.818,0,.076.012.179.023.284v.359l.009-.251a.9.9,0,0,1-.016.34,4.332,4.332,0,0,0,.169-1.443q.019-1.767,0-3.536a6.441,6.441,0,0,0-.068-1.209C360.5-121.992,360.5-122.219,360.491-122.447Z" transform="translate(-349.453 339.565)"/><path class="b" d="M377.663-140.273c0-.59,0-1.179-.007-1.768a2.52,2.52,0,0,1-.018-.732c-.412.8-.8,1.612-1.18,2.428l-5.637-.341a14.181,14.181,0,0,0-.825-2.55,3.464,3.464,0,0,1-.018.732c-.006.59-.007,1.179-.007,1.768s0,1.179.007,1.768a2.381,2.381,0,0,0,.018.732,13.919,13.919,0,0,1,.9,2.851,13,13,0,0,1,.213,1.56c0,.559-.008,1.118,0,1.677,0,.042.015.082.019.123v.129c0-.036,0-.072,0-.108a4.675,4.675,0,0,0,.535,1.334q.647,1.38,1.229,2.788a3.167,3.167,0,0,0,.277.681c.058.262.1.26.14-.008.042-.134.084-.269.127-.4q.224-.7.463-1.407.513-1.5,1.1-2.977,1.173-2.952,2.631-5.776a2.91,2.91,0,0,0,.018-.733C377.662-139.095,377.663-139.684,377.663-140.273Z" transform="translate(-349.453 339.565)"/><path class="b" d="M400.073-122.048c0,.077,0,.154,0,.23-.085.339-.248.712-.5.8-.212.076-1.054-.882-1.263-1.075l-.006.089-.1,1.48-2.1-.271c-.057-.09-.1-.188-.161-.275-.043-.061-.29-.474-.369-.477s-.38.517-.428.581l-.032.044-1.5-.194a1.626,1.626,0,0,0-.344-.226v.181l-2.1-.271c-.3-.852-.2-1.824-.744-2.6a4.027,4.027,0,0,1-.018.732c-.006.589-.007,1.179-.007,1.768s0,1.178.007,1.768c0,.16-.069.607.018.732.706,1.011.255,3.088,1.582,3.646a.987.987,0,0,0,1.31-.653,1.309,1.309,0,0,0,.017-.268,1.68,1.68,0,0,1,.953,1.345c0,.052,0,.1.006.155l.748-1.018.374-.508c.183-.248.166-.223.351.016a6.743,6.743,0,0,1,.967,1.74c0,.2.008.389.008.582,0,.87-.051,1.767.026,2.635a1.566,1.566,0,0,0,.1.457.8.8,0,0,0,.088.181c.082.105.021.119.09.038.155-.18.129-.824.143-1.059,0-.089.006-.179.011-.269.061.088.122.176.176.269a3.878,3.878,0,0,1,.481,1.453l.007-.089.219-3.309.107-1.607.056-.851a4.083,4.083,0,0,1,.056-.851c.259-.136.914.886,1.149.961.125.039.11.034.222-.086a1.7,1.7,0,0,0,.214-.285,1.841,1.841,0,0,0,.213-.529,3.126,3.126,0,0,0,.056-.641c.017-.761.015-1.523.015-2.284a13.476,13.476,0,0,0-.084-2.924A4.089,4.089,0,0,1,400.073-122.048Z" transform="translate(-349.453 339.565)"/><path class="b" d="M421.626-121.242c0-.029,0-.062,0-.089C421.626-121.311,421.626-121.278,421.626-121.242Z" transform="translate(-349.453 339.565)"/><path class="b" d="M427.409-119.189c0-.589,0-1.179-.008-1.768a4.006,4.006,0,0,1-.017-.732l-.946.628a5.233,5.233,0,0,0-1.051.7c-.147.179-.065.051-.119.283a4.651,4.651,0,0,1-.036.615c-.21.051-.536-.7-.63-.854a.657.657,0,0,1,.015.2c-.008-.068-.006-.136-.015-.2v.518c-.009.123-.018.218-.018.215v.039l-1.069-.137c-.09-.255-.178-.509-.272-.744l-1.592-3.932a3.269,3.269,0,0,1-.02.985c-.006.727-.006,1.453,0,2.18,0,.507,0,.153,0-.047,0,.141,0,.3,0,.428,0,.3-.011.591-.017.886l-5.074-.648c-.173-.847-.322-1.7-.431-2.555a20.669,20.669,0,0,1-.025,2.5,20.439,20.439,0,0,0,.025,2.5,33.607,33.607,0,0,0,.7,3.816q.234.943.522,1.87a4.217,4.217,0,0,0,.3.923c.083.015.642-.714.7-.776l.155-.172c.053-.115.1-.115.145,0,.091.041.2.273.263.355q.258.36.491.736a13.4,13.4,0,0,1,.828,1.562,13.628,13.628,0,0,1,1.02,3.491l.007-.089c.293-4.3.406-8.6.433-12.908l2.347,5.8c.129.318.11.456.3.092a2.987,2.987,0,0,0,.225-.571,4.758,4.758,0,0,0,.123-1.22l.563.912.007-.089a2.8,2.8,0,0,1,.042-.739c.123-.316.48-.471.743-.646l1.367-.907a4.153,4.153,0,0,0,.017-.732C427.408-118.011,427.409-118.6,427.409-119.189Z" transform="translate(-349.453 339.565)"/><path class="b" d="M463.514-120.045c-.009-.155-.013-.092-.011.179l0,.092-4.858-.03c-.015-.065-.033-.134-.047-.2a8.455,8.455,0,0,0-1.263-3.375c-.382-.5-.357-.643-.6-.078a5.175,5.175,0,0,0-.221.909,24.709,24.709,0,0,0-.426,2.536,1.835,1.835,0,0,0-.01.19l-2.191-.013c-.619-.523-.6-1.721-1.167-2.263-.659-.633-.714.164-.9.771-.151.49-.292.984-.435,1.476l-1.721-.01c-.13-.26-.261-.52-.391-.781l-.007.09c-.012.229-.03.459-.043.688l-5.478-.034a2.569,2.569,0,0,0-.09-.3,1.608,1.608,0,0,0-.463-.73q-.4-.505-.307.288c-.036.242-.072.485-.107.727v0l-7.635-.046a23.769,23.769,0,0,1-.422-2.5c.182,1.642-.182,3.35,0,5a22.935,22.935,0,0,0,.462,2.756,7.167,7.167,0,0,0,.808,2.562c.813.96,1.395-.663,2.235-.648.721.013.9,1.087,1.083,1.611a8.033,8.033,0,0,0,.426,1.2q.09.7.252.176l.329-.667.22-.445q.118-.789.555-.183c.305.1.527.609.838.656q.345.387.24-.353l.107-.727.216-1.453a18.567,18.567,0,0,1,.394-2.665c.165-.535.129-.563.5-.066a2.365,2.365,0,0,1,.36.789l.062.3c0,.038.006.05.01.081-.023.375.056.9.059,1.152a15.083,15.083,0,0,0,.06,1.562c.305,2.637,3.046,4.133,3.3,6.766l-.015-2.676a3.14,3.14,0,0,1,.013.5l.014-.067q0,.665.008,1.329c0-.31.016-.637.032-.97a8.524,8.524,0,0,1-.054,2.208,9.019,9.019,0,0,1,.195-.934c.065,0,.389.581.437.652s.374.657.438.653c.026,0,.107-.9.117-.978q.242-2.078.428-4.162.158-1.761.276-3.525a6.465,6.465,0,0,1,.12-1.965c.187-.335.05-.3.354-.009a4.756,4.756,0,0,1,.534,1.067,6.8,6.8,0,0,0,.428.853c.308.437.11.479.33-.007a13.11,13.11,0,0,0,.484-1.731q.251-.862.516-1.722c.152-.488.169-1.095.745-.652.7.54.566,1.646,1.195,2.25a1.158,1.158,0,0,0,.526.343c.168.037.425-.082.526-.06.219.05.281.149.479.43l.6.85.007-.089a25.717,25.717,0,0,1,.327-2.93c.048-.277.322-2.444.57-2.508.267-.068.928,1.25,1.017,1.444a10.1,10.1,0,0,1,.6,1.915c.5,2.13,1.049,5.14,3.7,5.467a3.248,3.248,0,0,0,.012-.342q.046-1.986.094-3.973c.329.394.507.96.827,1.322q.1.723.285.044a2.556,2.556,0,0,0,.145-.708,15.511,15.511,0,0,0,.055-2.16l.007-.1c.42-.743.754-1.66,1.81-1.269a21.611,21.611,0,0,1,.025-2.5,11.169,11.169,0,0,0-.025-2.5C463.982-122.789,463.608-121.366,463.514-120.045Z" transform="translate(-349.453 339.565)"/><path class="b" d="M505.784-121.9a2.588,2.588,0,0,1-.017-.732,14.593,14.593,0,0,0-.822,2.488l-4.651-.066-1.11-2.1q-.234-.441-.467-.882-.245-.877-.42-.011a6.471,6.471,0,0,0-.7,1.741c-.15.4-.288.8-.426,1.2l-3.86-.055c-.028-.138-.053-.277-.093-.408a7.543,7.543,0,0,0-1.36-2.585c-.825-1-1.426-.951-1.779.3-.123.438-.233.88-.35,1.32l-.233.879c-.028.287-.067.43-.117.436h-.006c-.051,0-.113-.143-.187-.427q-.192-.43-.385-.862-.265-.891-.249.058a4.613,4.613,0,0,0-.142,1.218l-13.168-.187a10.251,10.251,0,0,1,0-2.5,32.022,32.022,0,0,0-.417,4.208,8.686,8.686,0,0,0,0,1.684c.02.837.065,1.666.162,2.465a4.17,4.17,0,0,0,1.471,2.853c.875.666,2.289.414,2.874,1.348v.818a1.148,1.148,0,0,0,.726-1.088q.945,1.866,1.891,3.733l.555,1.1c.2.4.163.653.6.546.377-.093.723-.662,1.014-.883.876-.667,1.494-.127,1.886.75.6,1.348,1.063,2.781,1.588,4.161a3.258,3.258,0,0,0,.013-.342q.057-3.689.288-7.371.129-2.043.313-4.082a15.219,15.219,0,0,1,.348-3.428l.056-.489.386.862q.192.432.385.862l.234-.879c.174-.658.3-2.422.889-2.766,1.394-.815,2.743,3.262,2.916,4.1.145.706.17,1.653.809,2.13a1.23,1.23,0,0,0,.863.243c.1-.013.774-.406.672-.435l.286.65q.191.712.261-.128a7.275,7.275,0,0,0,.386-1.352q.476-1.57,1.068-3.1a12.157,12.157,0,0,1,.715-1.733,10.313,10.313,0,0,1,.7,1.323l1.635,3.088,1.635,3.088.468.883q.154.789.468.168c.518-.181.543-.586,1.176-.352a3.281,3.281,0,0,1-.1-1.279c.03.43.062.858.1,1.279v-2.736c.019-.244.044-.488.082-.73.064-.43.151-.857.255-1.279a14.718,14.718,0,0,1,.864-2.455,7.954,7.954,0,0,0,.025-2.5C505.792-120.719,505.791-121.308,505.784-121.9Z" transform="translate(-349.453 339.565)"/><path class="b" d="M462.036-159.585c0-.064,0-.128,0-.192v.191l-3.956-1.04c-1.48-1.257-3.01-2.462-4.513-3.687a6.9,6.9,0,0,1-.018.732q-.009.883-.008,1.768c0,.589,0,1.179.008,1.768,0,.117-.059.67.018.732l3.361,2.739a30.867,30.867,0,0,1,2.889,2.5,8.278,8.278,0,0,1,1.11,1.42,2.677,2.677,0,0,0,.178.314q.056.279.133.085c.05-.076.1-.154.143-.234a5,5,0,0,0,.344-.747,5.539,5.539,0,0,0,.309-1.735c0-.049,0-.1,0-.147a1.546,1.546,0,0,1,.845.384c.125.115.182.255.293.376.024.165.066.189.126.074.06-.071.117-.143.173-.216a7.073,7.073,0,0,0,1.035-1.939,3.133,3.133,0,0,0,.018-.732c.006-.589.007-1.178.007-1.768s0-1.178-.007-1.767a2.747,2.747,0,0,1-.018-.733,7.1,7.1,0,0,1-1.035,1.939l-.114.145a.539.539,0,0,1-.056.1l-.106-.028a.487.487,0,0,1-.023-.075c-.111-.087-.182-.274-.293-.376a1.548,1.548,0,0,0-.857-.387,3.049,3.049,0,0,1,.022.535Zm-.008,1.969v.415c-.009.712-.018,1.351-.019,1.626L462-157.164c.009-.152.025-.3.019-.454Z" transform="translate(-349.453 339.565)"/><path class="b" d="M450.476-140.122a18.784,18.784,0,0,0,.025,2.5,2.223,2.223,0,0,0,1.752,1.775,5.427,5.427,0,0,0,3.186-.59c1.068-.4,1.639.359,2.3,1.067.465.5,1.486,1.054,2,.315a2.914,2.914,0,0,0,.018-.732q.009-.883.007-1.768c0-.589,0-1.178-.007-1.768,0-.143-.088-.63-.018-.732-.509.738-1.531.183-2-.315-.662-.708-1.233-1.466-2.3-1.067a5.442,5.442,0,0,1-3.186.59,2.22,2.22,0,0,1-1.752-1.775,5.535,5.535,0,0,1-.017.732C450.477-141.3,450.476-140.711,450.476-140.122Z" transform="translate(-349.453 339.565)"/><path class="b" d="M500.554-136.6q0-1.26-.007-2.519c0-.5,0-1-.011-1.494,0,.147,0-.571-.019-.252-.052.738-.04,1.488-.028,2.235a2.933,2.933,0,0,0-.778-1.487,2.953,2.953,0,0,0-.8-.583,2.794,2.794,0,0,0-.422-.169.719.719,0,0,0-.241-.061c-.092.012-.148.134-.209.215l-.37.491a3.065,3.065,0,0,1-.4.535l-.067.089-.151-.18-.225-.269-.415-.5-1.769-2.114a4.639,4.639,0,0,1-.017.732c-.007.59-.008,1.179-.008,1.768s0,1.179.008,1.768l0,.391a3.229,3.229,0,0,0,.012.341l1.732,2.069.452.54.225.269.113.135c.037.074.072.06.105-.044a2.783,2.783,0,0,0,.37-.491l.4-.535c.033-.044.113-.206.168-.223s.182.04.242.057a2.767,2.767,0,0,1,.462.181,2.96,2.96,0,0,1,.769.554,2.932,2.932,0,0,1,.848,1.711,7.563,7.563,0,0,1,.02-.986Q500.558-135.508,500.554-136.6Z" transform="translate(-349.453 339.565)"/><path class="b" d="M507.2-159.2c0-.589,0-1.179-.007-1.768a3.535,3.535,0,0,1-.018-.732,6,6,0,0,0-1.761,2.2c-.059.126-.1.258-.154.387l-3.787.17a8.494,8.494,0,0,1-.306-1.627l0-.039c0-.16,0-.319,0-.478,0-.045-.012-.493-.019-.252,0,.06,0,.12,0,.18-.023-.41-.03.026-.02,1.3-.02,1.291-.024,2.584.023,3.87a8.883,8.883,0,0,0,.165,1.445,8.3,8.3,0,0,0,1.141,2.81v-.348a.47.47,0,0,1,.676-.183.931.931,0,0,1,.347.449l.028.078c.015.113.037.107.067-.019a1.321,1.321,0,0,0,.131-.356,5.424,5.424,0,0,0,.2-1.568c0-.02,0-.04,0-.06l.669.582a2.988,2.988,0,0,0,.353.307c.026-.013.037-.228.046-.275a5.891,5.891,0,0,1,.447-1.37,6,6,0,0,1,1.761-2.2,3.89,3.89,0,0,0,.018-.732C507.2-158.022,507.2-158.611,507.2-159.2Z" transform="translate(-349.453 339.565)"/><path class="b" d="M514.473-155.472a2.523,2.523,0,0,0,.909,1.086c.041.027.09.038.133.063a17.41,17.41,0,0,0,.7,3.306c.177.544.379,1.081.606,1.606-.015-.034.18.42.187.418a4.072,4.072,0,0,0,.12-.447q.14-.5.3-1,.264-.827.579-1.637a4.605,4.605,0,0,1,.35-.856,6.977,6.977,0,0,1,.317.949,5.517,5.517,0,0,0,.317.95c.108.189-.007.381.11.021.041-.13.05-.3.077-.432a8.232,8.232,0,0,1,.54-1.664,8.071,8.071,0,0,1,.4-.78c.035-.059.112-.247.172-.28l.059-.092c.038.1.079.209.121.312.118.29.251.572.4.849,0,.671.006,1.343.032,2.012l.006.089a3.043,3.043,0,0,0,.451-1.272c.142.217.288.43.447.635l.068.089q.144.325.18.057c.055-.049.092-.277.116-.348q.291-.871.581-1.742a3.613,3.613,0,0,0,1.472-1.82l.039.051a1.815,1.815,0,0,0,1.135.845,1.92,1.92,0,0,0,1.382-.384c.969-.7,1.109-2.025,1.222-3.123a24.809,24.809,0,0,0,.025-2.5c0-.816-.108-1.688-.025-2.5a5.448,5.448,0,0,1-.717,2.571l-2.869.283c-.059-.076-.118-.15-.176-.226a.588.588,0,0,1,0-.073c-.005.019-.013.035-.018.053l-.061-.078a1.429,1.429,0,0,0-.393-.408c-.2-.1-.105-.147-.243-.012a2.23,2.23,0,0,0-.193.581l-.094.278-2.574.254c-.11-.134-.43-.538-.6-.541-.147,0-.476.479-.634.662l-3.865.381-.084-.05c-.1-1.029-.129-2.847-.131-.576,0-.745,0-1.85-.025-1.85s-.025,1.744-.025,2.316a2.554,2.554,0,0,1-.826-1.028,3.46,3.46,0,0,1-.018.732c-.006.589-.007,1.179-.007,1.768s0,1.179.007,1.768A2.32,2.32,0,0,0,514.473-155.472Z" transform="translate(-349.453 339.565)"/><path class="b" d="M547.647-123.451a12.32,12.32,0,0,1-.023,1.329v-1.586c0-.033-.006-.067-.01-.1-.284,1.613-2.487.747-3.422.489a1.767,1.767,0,0,0-2.161.559,11.905,11.905,0,0,1-.681,1.125l-3.51-.028-.469-.576c-.249-.307-.225-.436-.493-.3a4.032,4.032,0,0,0-.527.867l-.426,0a7.379,7.379,0,0,0-.5-.785c-.176-.177-.823-.775-1.075-.665-.183.079-.39.917-.517,1.434l-.953-.008a10.383,10.383,0,0,0-1.156-2.531,3.658,3.658,0,0,0-.476-.679c-.328-.3-.052-.334-.35-.1s-.485,1.185-.63,1.55c-.228.576-.438,1.158-.656,1.738l-10-.081a41.9,41.9,0,0,0-5.765-2.546,17.9,17.9,0,0,1-.025,2.5,10,10,0,0,0,.025,2.5l3.637,1.582a12.176,12.176,0,0,1,2.847,1.459,2.89,2.89,0,0,1,.82.972c.026.056.178.607.187.609a3.568,3.568,0,0,1,.4-.514A1.447,1.447,0,0,1,524-113.994l.006.089c1.276-1.8,3.112.2,3.625,1.514q.124.338.237.678.144-.455.293-.91.3-.909.612-1.812.55-1.579,1.153-3.141.343-.893.7-1.778.18-.443.365-.884c.177.213.344.433.5.66a10.378,10.378,0,0,1,1.44,2.976,9.67,9.67,0,0,0,.284,1.212q.03.842.214-.04l.306-.9c.077-.223.427-1.741.613-1.8.318-.1,1.026.59,1.2.794a2.647,2.647,0,0,1,.4.608q.1.677.358.01l.452-.66q.213-.651.48-.018c.36.22.5.918.887,1.091q.165.35.249-.081a.81.81,0,0,1,.494-.231c.863-.165,1.636.782,2.427.051.582-.537.607-1.464,1.408-1.807,1.417-.606,3.366,1.5,4.644.105.521-.571.292-1.724.294-2.414C547.65-121.588,547.71-122.533,547.647-123.451Z" transform="translate(-349.453 339.565)"/><path class="b" d="M547.589-124.085c.013.091.015.185.025.277v0C547.606-123.9,547.6-123.994,547.589-124.085Z" transform="translate(-349.453 339.565)"/><path class="b" d="M547.647-123.451c0-.09-.016-.178-.023-.267v.01C547.632-123.622,547.642-123.537,547.647-123.451Z" transform="translate(-349.453 339.565)"/><path class="b" d="M547.624-123.846c0,.013-.007.023-.009.036l.009.092Z" transform="translate(-349.453 339.565)"/><path class="b" d="M588.624-125.406a12.163,12.163,0,0,1-.025,2.5h0l-1.1.026a4.425,4.425,0,0,0-.535-.959c-.121-.159-.9-1.178-1.11-1.118a7.794,7.794,0,0,0-.311,1.229c-.1.307-.219.6-.338.9l-23.815.557a3.066,3.066,0,0,1-.983-1.97c.008-.169,0-.34.02-.508a24.511,24.511,0,0,0-.026,5.607c.2,1.478,1.471,2.42,2.7,3.08a16.964,16.964,0,0,1,2.057,1.172,11.985,11.985,0,0,1,1.359,1.471,1.049,1.049,0,0,0,1.5.092c.137-.119.288-.686.357-.722.125-.066,1.175.636,1.332.721l.007-.089a1.575,1.575,0,0,1,1.35-1.481c.624-.072,1.129.4,1.73.406,1.51.018,1.187-2.265,2.547-2.4.632-.061.924.666,1.582.422.345-.127.441-.543.708-.722l.165-.3c.105.179.2.363.294.55a11.339,11.339,0,0,1,.813,2.133,11.532,11.532,0,0,1,.258,1.219l.057.412c.023.322.043.556.059.717q0,.635,0,1.269c.017-.356.035-.719.053-1.084a2.728,2.728,0,0,1-.06,1.173,19.425,19.425,0,0,1,1.865-4.111c.549-.728,2.378-1.3,2.482.142l.006.089a12.634,12.634,0,0,0,2.093-4.355c.158-.622.078-.714.589-.231a5.96,5.96,0,0,1,.662.731,14.183,14.183,0,0,1,1.049,2.109l.092.384a5.106,5.106,0,0,0,.363-.757,5.306,5.306,0,0,0,.271-1.014,10.533,10.533,0,0,0,.092-1.675,5.19,5.19,0,0,0,.04-1.65A15.345,15.345,0,0,0,588.624-125.406Zm-28.23,1.455v.865C560.382-123.376,560.388-123.664,560.394-123.951Z" transform="translate(-349.453 339.565)"/><path class="b" d="M584.045-142.928a5.369,5.369,0,0,1-.018.733c-.006.566-.007,1.133-.007,1.7,0,.022-.006.044-.01.065l-1.134-.069-1.028-1.382c.035.047-.011.286-.012.341,0,.241,0,.481-.007.722l0,.035a.591.591,0,0,1,0,.126v.094h0l0-.066c0-.063,0-.126,0-.189-.044-.534-.064-.441-.059.252l-1.239-.076a1.539,1.539,0,0,0-.076-.17c-.1-.174-.036-.093-.084.035a.594.594,0,0,1-.067.121l-1.644-.1a1.147,1.147,0,0,1-.154-.149c-.515-.708-.472-1.678-.941-2.418a3.875,3.875,0,0,1-.018.733c-.006.589-.007,1.178-.007,1.767s0,1.179.007,1.768c0,.169-.069.6.018.732a5.764,5.764,0,0,1,.556,1.522,2.044,2.044,0,0,0,.677,1.178,1.45,1.45,0,0,0,1.023.251.768.768,0,0,0,.413-.192.584.584,0,0,0,.126-.185c.058-.133-.013-.242.1-.063a6.56,6.56,0,0,1,.379.943l.378.943a9.21,9.21,0,0,0,.379.943,7.026,7.026,0,0,0,.124-1c.1-.951.137-1.907.157-2.864l1.273,1.71.305.41.152.205.115.153c.03.071.049.069.056,0,.077-.071.1-.35.13-.453q.066-.256.114-.518a18.217,18.217,0,0,0,.148-3.184A28.836,28.836,0,0,0,584.045-142.928Zm-2.229,4.731c0-.155.01-.31.012-.466,0,.35,0,.7,0,1.05C581.825-137.825,581.821-138,581.816-138.2Z" transform="translate(-349.453 339.565)"/><path class="b" d="M584.533-159.251l-.691-.053-.017-.038-.242-.522a2.806,2.806,0,0,0-.243-.522,4.372,4.372,0,0,0-.43.566l-.32.42-.583-.045-.761-.883a6.264,6.264,0,0,0-.779-.9c-.118-.229-.176-.25-.174-.061-.018.119-.036.239-.051.359-.027.2-.049.4-.069.6-.024.247-.036.5-.052.743l-1.236-.095a1.7,1.7,0,0,0-.824-.915,1.054,1.054,0,0,0-.722-.017.763.763,0,0,0-.341.228c-.156.2,0,.255-.271.134-.569-.249-.837-1.208-.887-1.762.006-.134,0-.268.013-.4-.011.129-.007.26-.014.39l0-.017v.057c-.038.782-.025,1.569-.025,2.35a21.669,21.669,0,0,0,.04,2.78,2.524,2.524,0,0,0,.487,1.2,1.332,1.332,0,0,0,.388.4q.176.243.2-.02a.63.63,0,0,1,.17-.21c.687-.573,1.458.151,1.77.752.519,1,.891,2.1,1.324,3.14a.709.709,0,0,1-.016-.22c.007.073.008.147.016.22v-.512c.008-.107.017-.2.017-.221.007-.589.008-1.178.008-1.767,0-.624.015-1.26,0-1.89a.7.7,0,0,1,.084-.309c-.008-.149.024-.159.1-.029l.234.271.311.361.623.722c.176.2.46.722.7.812.054.122.1.121.15,0l.144-.189.287-.377.287-.378.143-.189c.078-.16.134-.121.169.115a5.079,5.079,0,0,1,.388.835c.027.058.14.4.194.418s.349-.251.4-.288l1.707-1.226a12.841,12.841,0,0,1,1.706-1.227c.244-.117.129-.15.341.009a1.294,1.294,0,0,1,.286.431,2.63,2.63,0,0,1,.266.888,4.678,4.678,0,0,1-.021-.791l.008.45,0-.7c.015-.275.034-.548.035-.8,0-.941,0-1.883-.011-2.823-.007-.365-.013-.729-.02-1.093,0,.068.027-.528-.019-.252a4.192,4.192,0,0,0-.024.783,2.441,2.441,0,0,0-.319-.848c-.046-.071-.222-.4-.323-.4a3.54,3.54,0,0,0-.6.433l-2.209,1.587C585.009-159.636,584.774-159.419,584.533-159.251Zm-8.7-2.693q.011,1.014.02,2.026h0C575.825-160.6,575.811-161.272,575.838-161.944Z" transform="translate(-349.453 339.565)"/><path class="b" d="M607.382-122.674q-.307-.414-.616-.827a4.074,4.074,0,0,0-.616-.827l-.1-.138c-.024.113-.046.226-.069.34-.027.141-.053.283-.079.425q-.09.511-.162,1.027c-.095.689-.157,1.38-.2,2.072l-.454-.1a3.368,3.368,0,0,0-1-1.554,1.981,1.981,0,0,0-2.59-.074,1.116,1.116,0,0,0-.037-.316.7.7,0,0,0-.258-.363c-.258-.186-.23.016-.288.247l-.259,1.033-1.106-.257-.142-.217a7.534,7.534,0,0,1-1.1-1.819v-.023a3.164,3.164,0,0,1-.017-.732,2.375,2.375,0,0,0-.068.624c-.014.719-.013,1.439-.013,2.158a23.535,23.535,0,0,0,.029,2.643,5.886,5.886,0,0,0,1.217,2.225L600.2-116l.2.3.087-.345c.05-.2.1-.4.151-.6l.151-.6a2.957,2.957,0,0,1,.173-.69c-.018-.173.032-.217.149-.133a.638.638,0,0,1,.182.132.666.666,0,0,1,.186.387v.236c.011-.073.012-.15.02-.225a.463.463,0,0,1-.02.225,1.976,1.976,0,0,1,2.613.056,5.187,5.187,0,0,1,1.4,3.125,4.407,4.407,0,0,1,.017-.732c0,.132,0-.135,0-.137.006-.144.011-.288.019-.432q.024-.474.066-.947.081-.906.223-1.8.067-.429.149-.853a2.212,2.212,0,0,1,.085-.425,3.44,3.44,0,0,1,.257.345q.538.723,1.078,1.447a4.425,4.425,0,0,1,.018-.733q.009-.883.008-1.767c0-.59,0-1.179-.008-1.768C607.4-122.1,607.469-122.558,607.382-122.674Z" transform="translate(-349.453 339.565)"/><path class="b" d="M633.612-122.115a2.011,2.011,0,0,1,0,.46,1.163,1.163,0,0,1-.241.557c-.037.044-.2.247-.272.235a3.366,3.366,0,0,1-.314-.5l-.523-.839-.261-.419-.157-.251-.052.184a5.549,5.549,0,0,0-.287,1.013,2.6,2.6,0,0,1-.13.46c-.016.212-.048.244-.1.093l-.133-.273q-.466-.956-.932-1.911l-.444-.91c-.014-.028-.208-.459-.222-.455a3.212,3.212,0,0,0-.188.536,19.807,19.807,0,0,0-.537,1.913c-.148.649-.261,1.3-.344,1.963l-.564-.071a3.572,3.572,0,0,0-.592-.842,3.122,3.122,0,0,0-.275-.252l-.118-.092q-.139-.186-.153.009c-.088.081-.114.35-.155.474l-.169.519-.311-.039a3.608,3.608,0,0,0-.108-.448,3.837,3.837,0,0,0-.393-.794,1.446,1.446,0,0,0-.237-.327c-.178-.147-.1-.1-.187.081a1.916,1.916,0,0,1-.484.638c-.074.065-.2.2-.3.209-.136.012-.161-.171-.226-.311l-.894-1.905a3.523,3.523,0,0,1-.018.732c-.006.589-.007,1.179-.007,1.768s0,1.179.007,1.768a2.32,2.32,0,0,0,.018.732q.385.822.772,1.646a3.008,3.008,0,0,0,.2.433c.118.167.022.159.209.1a1.4,1.4,0,0,0,.535-.495,1.892,1.892,0,0,0,.155-.25,1.371,1.371,0,0,0,.087-.2c.011-.09.037-.092.078-.008.162.062.331.446.416.6a3.788,3.788,0,0,1,.478,1.6l.006.089a8.711,8.711,0,0,1,.5-1.517q-.008-.283.123-.147a2.149,2.149,0,0,1,.179.135,3.229,3.229,0,0,1,.427.416,3.466,3.466,0,0,1,.839,1.858c0,.143,0,.286,0,.43,0,.046,0,.491.019.252a20.1,20.1,0,0,1,.694-4.58q.149-.547.33-1.087a2.527,2.527,0,0,1,.188-.536,3.83,3.83,0,0,1,.266.546l1.11,2.275.266.546c.142.291.12.321.212,0q.156-.552.313-1.105l.078-.276c.01-.209.045-.242.1-.1.122.067.238.382.314.5l.627,1.006c.089.142.18.41.321.378.119-.026.238-.216.3-.31a1.528,1.528,0,0,0,.2-.83c.039-1.08.017-2.167.013-3.248A10,10,0,0,0,633.612-122.115Z" transform="translate(-349.453 339.565)"/><path class="b" d="M369.71-188.123c0-.092,0-.184,0-.275a5.532,5.532,0,0,0-.418-2.042,3.478,3.478,0,0,1-.018.733c-.006.588-.007,1.177-.007,1.766l-.281-.019c-.224-.487-.459-1-.515-1.089a10.262,10.262,0,0,0-1.389-1.778q-.2-.2-.407-.393-.065.336-.124.672-.117.674-.207,1.351c-.047.349-.067.707-.105,1.059L351.9-189.07h0c0-.59,0-1.179-.007-1.768a3.6,3.6,0,0,1-.018-.732,15.328,15.328,0,0,0-.325,3.284c-.052.216-.045,1.942-.017,2.958a16.99,16.99,0,0,0,.283,3.67,11.1,11.1,0,0,0,.611,1.944c.113.268.237.533.371.791a2.623,2.623,0,0,0,.284.509c.242.25.066.258.328.007a6.767,6.767,0,0,0,1.077-1.791c-.022.043.255-.541.256-.541a3.347,3.347,0,0,1,.085.519l.228,1.382q.411,2.506.823,5.011c.037.227.058.471.113.692s-.06.458.087.173a4.685,4.685,0,0,0,.213-1.207q.1-.6.212-1.207a3.309,3.309,0,0,1,.091-.517c.158-.45.083-.329.376-.027a16.552,16.552,0,0,1,1.356,1.589q.314.418.6.856c.051.077.161.336.239.378q.093.26.123-.008c.044-.136.09-.271.138-.406a19.109,19.109,0,0,1,1.714-3.6,19.369,19.369,0,0,1,1.392-1.985q.356-.445.739-.87c.186-.206.54-.739.79-.824s.073-.053.307.086a2.225,2.225,0,0,1,.468.509,5.793,5.793,0,0,1,.614.919,6,6,0,0,1,.666,2.239c0-.048,0-.1-.006-.146l0-2.373,0,.019c0-.028,0-.056,0-.084v-.3a18.626,18.626,0,0,0,.009-2.032c0-.032,0-.063,0-.095.066-.946.17-1.891.315-2.829a7.485,7.485,0,0,1,.234-1.346c.1-.02.545.537.6.6a10.215,10.215,0,0,1,1.34,1.815,10.235,10.235,0,0,1,.512,1.007c.076.172.147.347.214.523q.1.538.185-.013a5.073,5.073,0,0,0,.191-1.888q.011-.916.014-1.835C369.817-187.733,369.811-188.439,369.71-188.123Z" transform="translate(-349.453 339.565)"/><path class="b" d="M391.475-210.8c.235-.059.671-1.543.767-1.792a11.284,11.284,0,0,0,.735-3.861c.1.3.125-.375.065-2.025a12.685,12.685,0,0,0-.342-4.111,3.651,3.651,0,0,1-.017.732c-.007.589-.008,1.178-.008,1.768v0l-14.85,1.942-1.946-2.246a4.743,4.743,0,0,1-.018.732c-.006.59-.007,1.179-.007,1.768s0,1.179.007,1.768c0,.142-.068.634.018.732l2.838,3.275,1.31,1.511.654.756c.172.2.524.8.764.882.26.09.049.106.227-.156a3.644,3.644,0,0,0,.233-.564l.351-.846a4.937,4.937,0,0,1,.7-1.534c.884-.889,1.761,1.51,2.019,2.046a36.85,36.85,0,0,1,1.5,3.584c.028.077.187.585.2.587a4.391,4.391,0,0,0,.194-.461l.386-.923q.42-1,.838-2l.774-1.845q.225-.537.451-1.076a2.332,2.332,0,0,1,.194-.461c.063-.014.431.4.49.453C390.185-211.994,391.29-210.754,391.475-210.8Z" transform="translate(-349.453 339.565)"/><path class="b" d="M404.407-249.676a3.028,3.028,0,0,0-.018-.732c-.087-.311-.479-.6-.719-.256a2.971,2.971,0,0,0-.018.733c0,.22,0,.441,0,.662a1.468,1.468,0,0,0-.261.984l.013-.342a6.054,6.054,0,0,1-1.067-1.061,5.324,5.324,0,0,0-.364-.533,4.855,4.855,0,0,0-.523.716c-.392.539-.774,1.084-1.16,1.627l-8.692.734a22.08,22.08,0,0,1-.437-2.463,22.685,22.685,0,0,1-.025,2.5,22.658,22.658,0,0,0,.025,2.5,21.556,21.556,0,0,0,.6,3.175q.2.751.462,1.487a5.184,5.184,0,0,0,.62,1.557l.1.218.3-.4.447-.6c.116-.157.346-.629.522-.705.083-.174.14-.13.168.132l.189.466q.282.7.565,1.4a13.792,13.792,0,0,0,.659,1.631,4.9,4.9,0,0,0,.414-.637q.243-.37.487-.741.454-.687.914-1.37.92-1.367,1.863-2.715t1.911-2.683c.066-.09.514-.827.6-.818.069.006.322.479.364.533a6.122,6.122,0,0,0,1.067,1.061c.006-.071.006-.142.008-.213.18-.52.706-.748.911-1.237a6.108,6.108,0,0,0,.093-2.166C404.416-248.054,404.416-248.865,404.407-249.676Z" transform="translate(-349.453 339.565)"/><path class="b" d="M430.6-191c-.306-.95-1.267-.174-1.476.37a11.757,11.757,0,0,0-.382,1.552c-.028.122-.051.264-.073.414l-11.865-2.006c-.551-.9-1.078-1.818-1.554-2.762a3.66,3.66,0,0,1-.018.732q-.009.883-.007,1.768c0,.589,0,1.178.007,1.767a2.211,2.211,0,0,0,.018.733,37.928,37.928,0,0,0,4.616,7.09q.361.435.734.86a4.192,4.192,0,0,0,.567.63,7.285,7.285,0,0,0,.5-1.115l.249-.558q.139-.559.21,0a6.532,6.532,0,0,1,.481,2.01c.062.338.107.677.15,1.017a1.352,1.352,0,0,0,.04.488c.024.382.053.763.108,1.135,0-.029,0-.061-.006-.091q0-.663,0-1.326c.016-.071.03-.131.048-.228a4.025,4.025,0,0,1,.162-.528,3.983,3.983,0,0,1,.233-.5c.1.156.191.315.282.475a15.3,15.3,0,0,1,.947,2,15.418,15.418,0,0,1,1,4.48c.023.317.023-.4.02-.252.013-.5.01-1,.011-1.494,0-1.022.04-2.055-.017-3.076-.017-.3-.03-.606-.044-.909.024-.6.045-1.2.088-1.793q.086-1.207.223-2.41a8.589,8.589,0,0,1,.155-1.245,8.093,8.093,0,0,1,.745.717,6.793,6.793,0,0,0,.845.594q.222.132.455.246c.23.2.332.137.3-.194a10.14,10.14,0,0,0,.49-2.124,3.227,3.227,0,0,1,.623-1.688.689.689,0,0,1,1.117.2c0,.122.01.243.015.091.028-.857.023-1.715.023-2.572,0-.59,0-1.179-.007-1.768A3.184,3.184,0,0,0,430.6-191Z" transform="translate(-349.453 339.565)"/><path class="b" d="M445.191-184.435l1.038,2.594a6.787,6.787,0,0,0,.991,2.116c1.092,1.184,2.5-.335,3.038-1.3.273-.484.656-1.137,1.246-1.276.81-.192.865.849.953,1.383a47.422,47.422,0,0,1,.587,5.74l.007.089.654-3.721.327-1.861c.081-.457.076-1.35.534-1.6.7-.388,1.808.317,2.294.784a3.474,3.474,0,0,1,.968,1.677c0,.236,0,.473,0,.709,0,.074.01.161.018.245v.488l.13-1.081c.039-.331.024-.443.272-.664.391-.349.851-.6,1.228-.98a7.077,7.077,0,0,0,1.685-2.765,3.187,3.187,0,0,0,.018-.732c.006-.59.007-1.179.007-1.768s0-1.179-.007-1.768a2.868,2.868,0,0,1-.018-.732,7.132,7.132,0,0,1-1.407,2.449l-2.935-.106a2.41,2.41,0,0,0-2.156-.808.876.876,0,0,0-.49.713l-1.836-.066c-.166-.452-.441-.751-.923-.586a1.623,1.623,0,0,0-.71.527l-4.563-.164c-.33-.848-.626-1.716-.953-2.534a3.474,3.474,0,0,1-.018.732c-.006.589-.007,1.178-.007,1.768s0,1.178.007,1.767A2.455,2.455,0,0,0,445.191-184.435Z" transform="translate(-349.453 339.565)"/><path class="b" d="M485.638-184.822A20.587,20.587,0,0,1,487-181.3c.345,1.23.4,2.482.671,3.716.053.242-.1.316.089.142a1.726,1.726,0,0,0,.2-.442l.465-1.032q.433-.959.865-1.917a5.938,5.938,0,0,1,.4-.885c.287-.424.042-.293.293-.068a1.915,1.915,0,0,1,.233.345,17.9,17.9,0,0,1,.917,1.552,17.952,17.952,0,0,1,.754,1.638c.148.371.126.445.266.041a6.332,6.332,0,0,1,.32-.794,1.878,1.878,0,0,1,2.153-1.2,1.694,1.694,0,0,1,.51.327c.03.022.129.224.147.224a2.017,2.017,0,0,0,.2-.359,11.153,11.153,0,0,0,.747-1.763q.126-.392.224-.79c.064-.263.051-.6.258-.627.393-.047,1.22.582,1.522.789a7.124,7.124,0,0,1,1.289,1.131,7.2,7.2,0,0,1,.534.673c.2.284.274.553.549.188a2.349,2.349,0,0,0,.206-1.31c0-.054,0-.108,0-.162.091-.479.533-1.222,1.051-.78v-.42c.007-.185.018-.352.017-.312q.009-.883.007-1.768c0-.589,0-1.179-.007-1.768a2.449,2.449,0,0,0-.017-.732q-.174-.427-.346-.855a3.472,3.472,0,0,1-.018.732v.017a.766.766,0,0,0-.491.352,2.238,2.238,0,0,0-.246,1.337l-1.17-.1a7.142,7.142,0,0,0-2.2-1.723c-.118-.058-.685-.388-.791-.335a3.67,3.67,0,0,0-.175.8c-.084.327-.185.651-.3.969l-9.42-.777a21.115,21.115,0,0,0-1.061-2.588,3.6,3.6,0,0,1-.017.733c-.007.589-.008,1.178-.008,1.767s0,1.179.008,1.768A2.233,2.233,0,0,0,485.638-184.822Zm15.128,1.45,0-.032c0,.193,0,.386,0,.578l0,.253C500.779-181.862,500.777-182.132,500.766-183.372Z" transform="translate(-349.453 339.565)"/><path class="b" d="M410.147-160.067c0-.114,0-.228-.013-.342a.383.383,0,0,0-.467-.2.493.493,0,0,0-.149.088,1.559,1.559,0,0,0-.052-.3.91.91,0,0,0-1.227-.661c-.285.135-.535.266-.839.093a.826.826,0,0,1-.2-.2c0-.33,0-.661,0-.991l0-.391a3.257,3.257,0,0,0-.012-.342,3.73,3.73,0,0,0-.243.837,6.493,6.493,0,0,0-.028.751c-.014,1.075-.013,2.15-.007,3.225a11.792,11.792,0,0,0,.031,1.381,1.031,1.031,0,0,0,.1.342.907.907,0,0,0,.462.437c.458.177.8-.324,1.258-.21a.879.879,0,0,1,.44.284c0,.424,0,.848.024,1.269a2.753,2.753,0,0,0,.058.444.886.886,0,0,0,.031.128c.021.053-.009.07.027.027a.864.864,0,0,0,.077-.283,4.461,4.461,0,0,0,.116-.838c.041-.024.065-.065.117-.078a.385.385,0,0,1,.488.2c.007-.071.01-.143.01-.215,0-.172.007-.345.008-.517.006-.589.007-1.178.007-1.768s0-1.178-.007-1.767Z" transform="translate(-349.453 339.565)"/><path class="b" d="M617.22-160.6c0-.074-.026-.731-.018-.732a2.824,2.824,0,0,0-2.024,1.821l-.079-.027a3.4,3.4,0,0,0-.088-.5,1.83,1.83,0,0,0-.467-.886c-.11-.086-.069-.045-.189.021a.7.7,0,0,1-.2.077.865.865,0,0,1-.4-.021,2.337,2.337,0,0,1-1.3-1.29c-.3-.529-.646-1.12-1.3-1.227.03,0-.025,2.31-.025,2.5,0,.589,0,1.179.007,1.768a5.608,5.608,0,0,0,.018.732c1.075.177,1.244,1.519,1.959,2.15a1.145,1.145,0,0,0,1.27.291c.083-.034.05-.068.126-.035.055.023.108.127.145.178a2.25,2.25,0,0,1,.209.355,2.28,2.28,0,0,1,.169.539v.116c0,.085.011.181.018.276v.456a2.823,2.823,0,0,1,2.148-2.3c.025-.006.019-.839.018-.733q.009-.883.007-1.767C617.227-159.424,617.227-160.013,617.22-160.6Z" transform="translate(-349.453 339.565)"/><path class="b" d="M475.222-244.5c.09-.194.137-.194.139,0a7.159,7.159,0,0,0,.4.873,2.771,2.771,0,0,0,1.617,1.108c-.06-.015.025-2.3.025-2.5,0-.59,0-1.179-.008-1.768a4.5,4.5,0,0,0-.017-.732,2.771,2.771,0,0,1-1.808-1.426,5.1,5.1,0,0,0-.206-.555l-.03-.146c-.074.095-.146.192-.216.29a9.549,9.549,0,0,0-.745,1.235,8.371,8.371,0,0,0-.41.979l-2.246-1.4A2.263,2.263,0,0,0,469.95-250a2.04,2.04,0,0,0-.544.029l-2.519-1.567c-.075-.27-.148-.541-.2-.817q-.046-.266-.077-.534c-.011-.095-.019-.19-.025-.285,0-.24,0-.48-.006-.72,0-.044-.01-.493-.019-.252,0,.137,0,.275-.009.412-.026-.365-.034.017-.024,1.142-.025,1.33-.028,2.664.029,3.987a9.1,9.1,0,0,0,.41,2.384,8.529,8.529,0,0,0,.467,1.167,3.771,3.771,0,0,0,.634,1.087c.168.151.075.151.144-.087a1.108,1.108,0,0,1,.178-.351,1.441,1.441,0,0,1,.646-.471c1.382-.541,2.439.581,2.872,1.787.516,1.439.417,3.093,1.439,4.323a2.272,2.272,0,0,1,0-.5,2.814,2.814,0,0,0,.036-.4c.008-.09.017-.179.028-.269.025-.209.056-.417.095-.624a9.548,9.548,0,0,1,.258-1.052,9.6,9.6,0,0,1,1-2.215c.111-.179.227-.355.349-.526Z" transform="translate(-349.453 339.565)"/><path class="b" d="M561.565-231.636a2.013,2.013,0,0,0,.4.6c.232.219.309.3.484.031a2.265,2.265,0,0,0,.254-1.192c.7.172.888-.447.937-1.056l0,.035v-.084c.017-.24.016-.473.018-.648a29.268,29.268,0,0,0-.073-4.7c-.363-2.342-.884-4.67-1.326-7a14.513,14.513,0,0,1-.025,2.5v0l-14.764,1.886a6.416,6.416,0,0,1-.7-2.412c.132,1.653-.133,3.342,0,5a6.312,6.312,0,0,0,1.077,3.09,6.263,6.263,0,0,0,1.055,1.191,5.921,5.921,0,0,0,.685.515,1.515,1.515,0,0,0,.314.191c.263.085.172.129.378-.089.534-.565.417-1.608,1.058-2.1.971-.749,1.743,1,2.075,1.618.088.165.809,1.787.852,1.779s.528-1.577.63-1.782c.336-.678,1.535-2.951,2.427-1.839a6.6,6.6,0,0,1,.755,1.642q.165.413.319.829c.051.139.1.278.151.417s.1.279.145.42c.02.168.05.186.089.054.079-.028.265-.355.365-.429a1.386,1.386,0,0,1,.617-.249,1.235,1.235,0,0,1,1.163.48A6.652,6.652,0,0,1,561.565-231.636Z" transform="translate(-349.453 339.565)"/><path class="b" d="M557.461-197.822l-.81,2.6-36.782,4.769-1.23-2.34a3.587,3.587,0,0,1-.017.732c-.007.589-.008,1.178-.008,1.768s0,1.178.008,1.767a2.21,2.21,0,0,0,.017.733q.9,1.707,1.8,3.416a12.654,12.654,0,0,0,1.5,2.7c.661.72,1.223.483,1.642-.319.28-.534.493-1.117.736-1.668l.184-.417q.132-.8.478-.06c.87.529,1.188,1.961,2.055,2.5q.279.7.585.029l.585-.655q.3-.657.579.005.284.334.558.677a29.257,29.257,0,0,1,1.785,2.5c.167.262,1.492,2.676,1.51,2.671.061-.016.386-.639.486-.737a2.35,2.35,0,0,1,.731-.485,2.972,2.972,0,0,1,1.777-.165,2.315,2.315,0,0,1,1.515,1.049c.353.555.484,1.489,1.091,1.854.732.441,1.129-.387,1.456-.917a6.092,6.092,0,0,1,1.644-1.9c1.259-.863,3.716-.644,3.762,1.3l.007.09c.237-1.568.516-3.128.852-4.678q.227-1.046.484-2.084a7.733,7.733,0,0,1,.61-2.3c.02-.295.087-.305.2-.031l.416.592.555.789.416.592q.245.495.208-.231a8.426,8.426,0,0,0,.188-.849,11.164,11.164,0,0,1,.756-2.033c.159-.326.336-.642.526-.95.3-.481.184-.606.615-.2a8.881,8.881,0,0,1,1.816,3.614c.037.121.237,1.024.273,1.034.083.023.428-.753.455-.817.215-.5.136-1.2.655-1.294.214-.041.589.28.724.247q.3.308.272-.379l.146-.47.73-2.348q.729-2.347,1.459-4.7a9.628,9.628,0,0,0,.025-2.5A9.7,9.7,0,0,1,557.461-197.822Z" transform="translate(-349.453 339.565)"/><path class="b" d="M571.5-242.925l.4,2.343c.071.416.027,1.186.6.8.344-.231.44-.729.81-.949.528-.315.988.177,1.308.552.448.524.861,1.085,1.29,1.626l.738.929a4.509,4.509,0,0,0,.737.929q.225.484.278-.037.095-.27.19-.538.193-.537.394-1.072.351-.935.728-1.86.431-1.056.894-2.1c.077-.174.155-.347.233-.521q.074-.466.249-.1c.218.113.422.454.629.61a1.517,1.517,0,0,0,1.259.389c.608-.171.683-.851,1.063-1.259a1.655,1.655,0,0,1,2.461.164,4.315,4.315,0,0,1,.018-.733q.009-.883.007-1.767c0-.59,0-1.179-.007-1.768,0-.152.069-.62-.018-.732a1.655,1.655,0,0,0-2.461-.164c-.38.408-.455,1.088-1.063,1.259a1.516,1.516,0,0,1-1.259-.389c-.207-.156-.411-.5-.629-.61q-.175-.371-.249.1-.115.255-.228.51l-8.719-2.662-.447-2.637a16.068,16.068,0,0,1-.025,2.5,15.336,15.336,0,0,0,.025,2.5Z" transform="translate(-349.453 339.565)"/><path class="b" d="M626.028-239.32a3.505,3.505,0,0,0,.259-.352l.453-.617.452-.617a1.923,1.923,0,0,1,.259-.353l.13-.176.148.313.743,1.568a10.049,10.049,0,0,0,.792,1.672c.1.129.022.217.217.207a.4.4,0,0,0,.187-.1,1.047,1.047,0,0,0,.223-.388,1.679,1.679,0,0,1,.559-.893,1.683,1.683,0,0,1,1.982.288,2.7,2.7,0,0,1,.64,1.107c.143.429.112.978.285,1.381.073.17.028-.036.049-.132.032-.141.047-.294.067-.438.041-.292.075-.586.1-.88.053-.555.082-1.111.094-1.668a38.158,38.158,0,0,0-.626-10.147,3.9,3.9,0,0,1-.018.732c-.006.589-.007,1.177-.007,1.765l-9.608-.929-1.921-2.686a4.235,4.235,0,0,1-.017.733c-.007.589-.008,1.178-.008,1.767s0,1.179.008,1.768c0,.159-.07.611.017.732l4.263,5.962A3.023,3.023,0,0,0,626.028-239.32Zm7.621-1.042c.009.289,0,.462,0,0Zm0-3.5c0-.48.01-.3,0,0Z" transform="translate(-349.453 339.565)"/><path class="b" d="M611.131-185.225a5.171,5.171,0,0,0-.432-1.9,3.464,3.464,0,0,1-.018.732c0,.414,0,.828,0,1.243l-.245-.645-.705-1.853-.176-.464q-.073-.371-.208.116a5.534,5.534,0,0,0-.439.814c-.334.627-.638,1.269-.953,1.906l-9.2-2.178a.526.526,0,0,0-.586-.139l-3.407-.806v-.006c0-.589,0-1.179-.007-1.768a3.059,3.059,0,0,1-.018-.732,12.924,12.924,0,0,0-.475,3.407q-.071-.756-.026,1.89c-.007,1.126-.03,2.259.042,3.381a3.567,3.567,0,0,0,.1.965q.022.579.162,0l.226-.58.225-.58q.2.157.385.331a5.565,5.565,0,0,1,.67.76,5.666,5.666,0,0,1,.523.868q.111.228.2.466.09.508.2-.059c.478-.642.457-1.644.926-2.3.5-.7,1.037.043,1.4.5a14.486,14.486,0,0,1,2.261,3.946c.121.32.066.593.434.461a.843.843,0,0,0,.352-.343,3.681,3.681,0,0,0,.392-1.113c.185-.68.516-1.756,1.427-1.134a4.021,4.021,0,0,1,1.14,1.716,6.079,6.079,0,0,1,.324,1q.059.258.1.519c.006.067.012.121.017.179,0,.135,0,.27,0,.405,0,.07.013.17.024.274v.369c.006-.1,0-.194.007-.291a.936.936,0,0,1-.014.38q.939-2.28,2.021-4.5.543-1.107,1.123-2.2a5.95,5.95,0,0,1,.588-1.084,8.318,8.318,0,0,1,.47,1.235,13.1,13.1,0,0,0,.94,2.471q.134.6.168.046a3.223,3.223,0,0,0,.041-.354c.035-.392.028-.786.032-1.178C611.154-182.437,611.188-183.836,611.131-185.225Z" transform="translate(-349.453 339.565)"/><path class="b" d="M384.982-161.248a1.887,1.887,0,0,0-.1-.491c-.007.072-.01.143-.01.215,0,.172-.007.345-.008.517s0,.33,0,.5c-.01.027-.008.058-.02.085a1.323,1.323,0,0,1-.337.513c-.067.051-.039.016-.052-.058a1.2,1.2,0,0,0-.027-.119,1.385,1.385,0,0,0-.094-.249,1.546,1.546,0,0,0-.317-.428,1.712,1.712,0,0,0-.953-.465,1.427,1.427,0,0,0-.407.017h0v-.022c0-.589,0-1.179-.007-1.768l0-.391a3.229,3.229,0,0,0-.013-.341,5.587,5.587,0,0,0-.363,1.952,17.3,17.3,0,0,0-.072,2.468.7.7,0,0,1-.213.019.731.731,0,0,1-.563-.428c-.3-.466-.607-1.1-1.269-.824a1.739,1.739,0,0,0-.924,1.462c-.007.081,0,.164-.007.246q-.055-.7-.035,1.118c0,.042,0,.082,0,.123l-1.133-.119c-.221-.236-.453-.459-.694-.675,0-.289,0-.578,0-.866,0-.59,0-1.179-.008-1.768l-.005-.391a3.229,3.229,0,0,0-.012-.341,7.545,7.545,0,0,0-.66,2.131c-.019.122-.028.246-.04.369h-.278a3.73,3.73,0,0,0-.7-1.17c-.059-.066-.151-.2-.233-.236l-.061-.056-.115.17-.336.5a11.44,11.44,0,0,0-1.556-.657s-.019.845-.018.732c0,.241,0,.482,0,.724h-.644a13.63,13.63,0,0,1-.648-2.5,5.066,5.066,0,0,1-.017.733c-.007.589-.008,1.178-.008,1.767s0,1.179.008,1.768a5.1,5.1,0,0,0,.017.732,13.492,13.492,0,0,0,.682,2.606,13.259,13.259,0,0,0,.535,1.237c.028.057.057.115.086.172l.087-.128.2-.3.4-.6.807-1.192.066-.1a11.382,11.382,0,0,1,1.486.906,3.948,3.948,0,0,1,.165.646c0,.052.006.07.01.05.005.035.016.069.021.1a4.024,4.024,0,0,1,.015-.537V-154a11.015,11.015,0,0,1,1.385,1.205,10.833,10.833,0,0,1,.88,1.045c.019.025.145.235.168.233.043,0,.13-.275.146-.323a2.465,2.465,0,0,0,.106-.644c.025-.436.022-.875.027-1.314.016-.3.029-.575.042-.838a1.527,1.527,0,0,1,.79-.917c.632-.261.959.309,1.238.771.143.238.295.459.594.481a.559.559,0,0,0,.531-.229,2.151,2.151,0,0,0,.037-.8c0-.291,0-.583,0-.874a1.407,1.407,0,0,1,.315-.044,1.7,1.7,0,0,1,1.28.623,1.454,1.454,0,0,1,.194.306c.058.121.07.248.115.37a.661.661,0,0,0,.009.073.614.614,0,0,0,.078-.081,1.626,1.626,0,0,0,.121-.153,1.762,1.762,0,0,0,.208-.4,1.851,1.851,0,0,0,.107-.464c.016-.15.017-.3.02-.453.013-.627.013-1.255.013-1.882,0-.719,0-1.438-.007-2.156C385-160.722,385-160.986,384.982-161.248Zm-2.7-.379.006.09c0-.033,0-.057-.006-.083Z" transform="translate(-349.453 339.565)"/><path class="c" d="M612.8-252.228q6.88.051,13.734.086,1.673,0,3.343,0a11.331,11.331,0,0,0,.578-2.7c.085-1.049.035-2.108.07-3.162a8.451,8.451,0,0,0-.66-2.826,3.891,3.891,0,0,1-.228-1.945q.121-.618.268-1.23a5.909,5.909,0,0,0,.336-2.511,3.226,3.226,0,0,1-.088-.594c0-.7.029-1.392.024-2.088a5.151,5.151,0,0,1,.39-2.284,11.869,11.869,0,0,1,1.907-2.7,1.437,1.437,0,0,0,.292-1.794,1.193,1.193,0,0,0-.249-.3c-.518-.447-1.049-.881-1.565-1.331a2.394,2.394,0,0,1-1.035-1.578c-.043-.524-.086-1.048-.116-1.573a4.474,4.474,0,0,0-.395-2.347.584.584,0,0,1-.038-.245c-.04-.393-.052-.793-.124-1.181a4.318,4.318,0,0,1,.478-3.1,18.632,18.632,0,0,0,.908-1.8,1.634,1.634,0,0,0,.02-1.626,4.666,4.666,0,0,0-1.452-1.313,16.883,16.883,0,0,0-2.521-1.04,1.278,1.278,0,0,1-.725-.639c-.375-.669-.791-1.315-1.16-1.987a6.3,6.3,0,0,0-2.765-2.214c-.379-.217-.41-.19-.1-.524a3.219,3.219,0,0,1,.266-.243c.484-.414.976-.82,1.452-1.243a2.023,2.023,0,0,0,.083-2.962,20.773,20.773,0,0,0-1.631-1.573,2.429,2.429,0,0,1-.7-1,13.781,13.781,0,0,1-.181-2.146c-.029-.54,0-1.083-.051-1.622a1.152,1.152,0,0,0-.85-1.155c-.255-.066-.5-.161-.761-.212-.755-.147-1.511-.291-2.271-.41-.3-.046-.387-.137-.292-.442.113-.366.153-.753.258-1.122a.752.752,0,0,1,.27-.422,11.915,11.915,0,0,0,1.952-1.589,2.671,2.671,0,0,0,.8-1.836,1.293,1.293,0,0,0-.234-.8,7.257,7.257,0,0,0-1.1-1.236,1.682,1.682,0,0,1-.643-1.888,3.822,3.822,0,0,0-.177-2.711c-.046-.094-.1-.216-.179-.256a8.407,8.407,0,0,0-1.437-.643,12.626,12.626,0,0,0-4.036-.4,1.45,1.45,0,0,1-.279-.036,2.192,2.192,0,0,1,.118-.244A6.439,6.439,0,0,0,613.324-328a26.406,26.406,0,0,1,.78-5.448c.357-1.285.783-2.549,1.145-3.832a2.556,2.556,0,0,0-.145-2.055c-.165-.288-.274-.318-.473-.045a.878.878,0,0,1-.32.225,10.949,10.949,0,0,0-3.3,2.468c-.786.861-1.58,1.715-2.37,2.573a9.18,9.18,0,0,0-2.014,2.873.277.277,0,0,1-.228.111,22.228,22.228,0,0,0-2.641-.2,9.474,9.474,0,0,0-4.534,1.113,6.716,6.716,0,0,0-3.127,3.332,9.572,9.572,0,0,0-.557,5.083c.049.315-.033.413-.316.548a30.127,30.127,0,0,0-2.932,1.52,8.6,8.6,0,0,0-3.593,4.337,18.934,18.934,0,0,0-.989,5.616,9.246,9.246,0,0,0,.514,3.4.506.506,0,0,1-.074.561,23.284,23.284,0,0,0-4.12,6.858,11.75,11.75,0,0,0-.76,7.154.69.69,0,0,1-.158.51,10.749,10.749,0,0,0-2.235,4.391,9.245,9.245,0,0,0-.248,3.317c.1.832.268,1.656.423,2.481.143.763.315,1.521.46,2.284a.469.469,0,0,1-.1.311,16.981,16.981,0,0,0-1.108,1.555,11.446,11.446,0,0,0-1.355,6.534,2.208,2.208,0,0,1-.559,2.106,14.7,14.7,0,0,0-2.3,4.935,6.963,6.963,0,0,1-.729,1.866A10.645,10.645,0,0,0,574-256.516c-.01.37,0,.734.027,1.1C586.554-255.307,599.892-254.607,612.8-252.228Z" transform="translate(-349.453 339.565)"/><path class="d" d="M600.352-280.953a1.986,1.986,0,0,0-1.932,2.025,1.705,1.705,0,0,0,1.72,1.665,1.968,1.968,0,0,0,1.933-1.931,1.736,1.736,0,0,0-1.714-1.759Zm-.623,1.464a.415.415,0,0,1-.415-.415.415.415,0,0,1,.415-.415.415.415,0,0,1,.415.415.416.416,0,0,1-.414.415Z" transform="translate(-349.453 339.565)"/><path class="d" d="M622.071-283.55a1.937,1.937,0,0,0-1.974,1.987,1.486,1.486,0,0,0,1.469,1.653,2.039,2.039,0,0,0,1.831-2.25A1.35,1.35,0,0,0,622.071-283.55Zm-.781,1.573a.415.415,0,0,1-.415-.415.414.414,0,0,1,.415-.414.414.414,0,0,1,.414.414.415.415,0,0,1-.413.415Z" transform="translate(-349.453 339.565)"/><path class="a" d="M603.243-285.978a24.167,24.167,0,0,0-12.476,3.6,2.881,2.881,0,0,0-1.222,2.072,7.278,7.278,0,0,0,3.036,5.815,7.986,7.986,0,0,0,8.752.878,8.671,8.671,0,0,0,5.116-7.793c-.056-.478-.1-.962-.17-1.443C606.029-284.678,604.774-286.017,603.243-285.978Zm-3.1,8.715a1.7,1.7,0,0,1-1.719-1.665,1.986,1.986,0,0,1,1.932-2.025,1.737,1.737,0,0,1,1.72,1.753v.006A1.968,1.968,0,0,1,600.14-277.263Z" transform="translate(-349.453 339.565)"/><path class="a" d="M624.57-287.214a14.363,14.363,0,0,0-4.243-.493,58.344,58.344,0,0,0-6.917.691c-2.249.357-3.308.8-2.551,3.313a2.7,2.7,0,0,1,.065.482c-.136,3.148,1.705,5.2,4.087,6.757a9.335,9.335,0,0,0,3.579,1.257c3.345.524,6.64-3.154,7.368-5.466l.437-1.586a11.183,11.183,0,0,0,.1-1.24C626.363-285.064,626.371-286.726,624.57-287.214Zm-3,7.3a1.485,1.485,0,0,1-1.469-1.653,1.937,1.937,0,0,1,1.974-1.987,1.352,1.352,0,0,1,1.327,1.39A2.04,2.04,0,0,1,621.566-279.91Z" transform="translate(-349.453 339.565)"/><circle class="a" cx="250.276" cy="59.661" r="0.415"/><circle class="a" cx="271.836" cy="57.173" r="0.415"/><path class="a" d="M402.356-264.052q3.45,0,3.45,3.45v12.881a3.1,3.1,0,0,1-3.45,3.45H373.374a3.1,3.1,0,0,0-3.45,3.45v3.68a3.147,3.147,0,0,0,3.45,3.45H392.35q3.45,0,3.451,3.45v12.881a3.1,3.1,0,0,1-3.451,3.45H373.374a3.1,3.1,0,0,0-3.45,3.451V-187a3.1,3.1,0,0,1-3.45,3.451H352.9A3.148,3.148,0,0,1,349.453-187v-73.6a3.1,3.1,0,0,1,3.451-3.45Z" transform="translate(-349.453 339.565)"/><path class="a" d="M428.8-264.052q3.45,0,3.45,3.45V-187a3.1,3.1,0,0,1-3.45,3.451H416.152A3.148,3.148,0,0,1,412.7-187v-73.6a3.1,3.1,0,0,1,3.45-3.45Z" transform="translate(-349.453 339.565)"/><path class="a" d="M504.359-189.758a4.075,4.075,0,0,1-3.795,6.21H487.452a2.8,2.8,0,0,1-2.644-1.611l-11.961-23.116a1.171,1.171,0,0,0-.92-.574h-4.6a3.443,3.443,0,0,0-3.565,3.564v18.171a3.444,3.444,0,0,1-3.565,3.566H447.316a3.443,3.443,0,0,1-3.565-3.566v-73.373a3.443,3.443,0,0,1,3.565-3.565H472.5c20.471,0,28.751,8.74,28.751,27.6,0,10.7-2.645,18.171-8.74,22.541a1.219,1.219,0,0,0-.345,1.5Zm-37.032-54.513a3.443,3.443,0,0,0-3.565,3.564v8.511a3.443,3.443,0,0,0,3.565,3.566h5.865c5.52,0,8.28-.691,8.28-7.821s-2.76-7.82-8.28-7.82Z" transform="translate(-349.453 339.565)"/><path class="a" d="M550.356-235.531c-2.3.46-3.449-.575-3.795-2.875-.805-4.716-4.6-7.706-10-7.706-4.485,0-7.246,2.646-6.786,5.291,1.61,8.97,37.952,8.74,37.952,35.192,0,3.45-3.91,23.8-31.166,23.8-24.151,0-29.327-15.87-29.9-24.841a3.374,3.374,0,0,1,2.989-3.794l13-2.875c2.3-.46,3.565.575,3.795,2.99.46,5.519,4.716,8.74,10.121,8.74,5.635,0,9.775-3.335,9.085-6.44-2.185-9.776-36.8-7.591-36.8-34.042-.115-3.451,1.955-23.806,27.717-23.806,23.69,0,29.211,15.41,29.9,23.691a3.377,3.377,0,0,1-2.99,3.795Z" transform="translate(-349.453 339.565)"/><path class="a" d="M593.25-240.821q0-3.452-3.45-3.45H573.7a3.148,3.148,0,0,1-3.451-3.45V-260.6a3.1,3.1,0,0,1,3.451-3.45h58.882q3.45,0,3.451,3.45v12.881a3.1,3.1,0,0,1-3.451,3.45h-16.1a3.1,3.1,0,0,0-3.45,3.45V-187a3.1,3.1,0,0,1-3.45,3.451H596.7A3.148,3.148,0,0,1,593.25-187Z" transform="translate(-349.453 339.565)"/><path class="a" d="M383-169.269a1.929,1.929,0,0,1,2.182,2.183v8.146A1.959,1.959,0,0,1,383-156.757h-18.33a1.958,1.958,0,0,0-2.182,2.182v2.327a1.991,1.991,0,0,0,2.182,2.183h12a1.928,1.928,0,0,1,2.182,2.182v8.146a1.958,1.958,0,0,1-2.182,2.182h-12a1.959,1.959,0,0,0-2.182,2.182v14.839a1.958,1.958,0,0,1-2.182,2.182h-8.583a1.991,1.991,0,0,1-2.183-2.182v-46.552a1.96,1.96,0,0,1,2.183-2.183Z" transform="translate(-349.453 339.565)"/><path class="a" d="M427.884-122.279a2.576,2.576,0,0,1-2.4,3.927h-8.292a1.774,1.774,0,0,1-1.674-1.018l-7.564-14.62a.744.744,0,0,0-.582-.364h-2.91a2.178,2.178,0,0,0-2.255,2.255v11.493a2.177,2.177,0,0,1-2.255,2.254h-8.146a2.177,2.177,0,0,1-2.255-2.254v-46.408a2.178,2.178,0,0,1,2.255-2.255h15.93c12.947,0,18.184,5.528,18.184,17.457,0,6.765-1.673,11.493-5.528,14.257a.771.771,0,0,0-.218.946Zm-23.422-34.478a2.178,2.178,0,0,0-2.255,2.255v5.382a2.178,2.178,0,0,0,2.255,2.255h3.71c3.491,0,5.237-.437,5.237-4.947s-1.746-4.945-5.237-4.945Z" transform="translate(-349.453 339.565)"/><path class="a" d="M465.418-169.269a1.929,1.929,0,0,1,2.182,2.183v8.146a1.959,1.959,0,0,1-2.182,2.183h-17.6a1.958,1.958,0,0,0-2.182,2.182v2.327a1.991,1.991,0,0,0,2.182,2.183H459.09a1.929,1.929,0,0,1,2.182,2.182v8.146a1.958,1.958,0,0,1-2.182,2.182H447.815a1.959,1.959,0,0,0-2.182,2.182v2.328a1.99,1.99,0,0,0,2.182,2.182h17.6a1.929,1.929,0,0,1,2.182,2.182v8.147a1.928,1.928,0,0,1-2.182,2.182h-30.55a1.991,1.991,0,0,1-2.183-2.182v-46.552a1.96,1.96,0,0,1,2.183-2.183Z" transform="translate(-349.453 339.565)"/><path class="a" d="M505.934-169.269a1.93,1.93,0,0,1,2.183,2.183v8.146a1.96,1.96,0,0,1-2.183,2.183h-17.6a1.958,1.958,0,0,0-2.182,2.182v2.327a1.991,1.991,0,0,0,2.182,2.183h11.274a1.928,1.928,0,0,1,2.182,2.182v8.146a1.958,1.958,0,0,1-2.182,2.182H488.332a1.959,1.959,0,0,0-2.182,2.182v2.328a1.99,1.99,0,0,0,2.182,2.182h17.6a1.929,1.929,0,0,1,2.183,2.182v8.147a1.929,1.929,0,0,1-2.183,2.182h-30.55a1.99,1.99,0,0,1-2.182-2.182v-46.552a1.959,1.959,0,0,1,2.182-2.183Z" transform="translate(-349.453 339.565)"/><path class="a" d="M548.2-130.863a1.929,1.929,0,0,1,2.182,2.182v8.147a1.958,1.958,0,0,1-2.182,2.182H512.046c-1.746,0-2.4-1.091-1.528-2.618l19.858-34.915c.291-.509.073-.872-.509-.872H515.973a1.992,1.992,0,0,1-2.182-2.183v-8.146a1.959,1.959,0,0,1,2.182-2.183h35.061c1.746,0,2.4,1.091,1.527,2.619L532.34-131.735c-.291.509-.073.872.509.872Z" transform="translate(-349.453 339.565)"/><path class="a" d="M589.369-169.269a1.929,1.929,0,0,1,2.182,2.183v8.146a1.959,1.959,0,0,1-2.182,2.183h-17.6a1.959,1.959,0,0,0-2.183,2.182v2.327a1.992,1.992,0,0,0,2.183,2.183H583.04a1.929,1.929,0,0,1,2.183,2.182v8.146a1.959,1.959,0,0,1-2.183,2.182H571.766a1.959,1.959,0,0,0-2.183,2.182v2.328a1.991,1.991,0,0,0,2.183,2.182h17.6a1.929,1.929,0,0,1,2.182,2.182v8.147a1.928,1.928,0,0,1-2.182,2.182h-30.55a1.991,1.991,0,0,1-2.183-2.182v-46.552a1.96,1.96,0,0,1,2.183-2.183Z" transform="translate(-349.453 339.565)"/><path class="a" d="M635.486-122.279a2.577,2.577,0,0,1-2.4,3.927h-8.292a1.773,1.773,0,0,1-1.673-1.018l-7.564-14.62a.744.744,0,0,0-.582-.364h-2.909a2.177,2.177,0,0,0-2.255,2.255v11.493a2.178,2.178,0,0,1-2.256,2.254h-8.146a2.178,2.178,0,0,1-2.255-2.254v-46.408a2.178,2.178,0,0,1,2.255-2.255h15.929c12.948,0,18.185,5.528,18.185,17.457,0,6.765-1.673,11.493-5.528,14.257a.771.771,0,0,0-.218.946Zm-23.421-34.478a2.177,2.177,0,0,0-2.255,2.255v5.382a2.178,2.178,0,0,0,2.255,2.255h3.709c3.491,0,5.237-.437,5.237-4.947s-1.746-4.945-5.237-4.945Z" transform="translate(-349.453 339.565)"/></svg>