<svg xmlns="http://www.w3.org/2000/svg" width="1088.808" height="265.496" viewBox="0 0 1088.808 265.496"><path d="M76.014,171.5c-4,.8-6-1-6.6-5-1.4-8.2-8-13.4-17.4-13.4-7.8,0-12.6,4.6-11.8,9.2,2.8,15.6,66,15.2,66,61.2,0,6-6.8,41.4-54.2,41.4-42,0-51-27.6-52-43.2-.2-3.6,1.6-5.8,5.2-6.6l22.6-5c4-.8,6.2,1,6.6,5.2.8,9.6,8.2,15.2,17.6,15.2,9.8,0,17-5.8,15.8-11.2-3.8-17-64-13.2-64-59.2-.2-6,3.4-41.4,48.2-41.4,41.2,0,50.8,26.8,52,41.2.2,3.6-1.6,5.8-5.2,6.6Z" fill="#fff"/><path d="M118.614,166.9c0-13.2,2.8-48.6,50.2-48.6,42.6,0,49.2,28.6,50,44a5.245,5.245,0,0,1-4.4,5.6l-22.2,5c-4.2.8-7.4-2-8-6.2-1-8.8-4.6-14-15.4-14-14.8,0-15.8,9.4-15.8,24.8v28.8c0,15.4,1,24.8,15.8,24.8,11,0,14-5.2,15.2-14.4.6-4.2,3.8-6.8,7.8-5.8l22.6,5a5.321,5.321,0,0,1,4.4,5.8c-.8,15.2-7.4,43.8-50,43.8-47.4,0-50.2-35.4-50.2-48.6Z" fill="#fff"/><path d="M331.011,216.9c0,13.2-2.8,48.6-50.2,48.6s-50.2-35.4-50.2-48.6v-50c0-13.2,2.8-48.6,50.2-48.6s50.2,35.4,50.2,48.6Zm-34.4-39.4c0-15.4-1-24.8-15.8-24.8s-15.8,9.4-15.8,24.8v28.8c0,15.4,1,24.8,15.8,24.8s15.8-9.4,15.8-24.8Z" fill="#fff"/><path d="M447.409,216.9c0,13.2-2.8,48.6-50.2,48.6s-50.2-35.4-50.2-48.6v-50c0-13.2,2.8-48.6,50.2-48.6s50.2,35.4,50.2,48.6Zm-34.4-39.4c0-15.4-1-24.8-15.8-24.8s-15.8,9.4-15.8,24.8v28.8c0,15.4,1,24.8,15.8,24.8s15.8-9.4,15.8-24.8Z" fill="#fff"/><path d="M515.406,121.9c35.6,0,50,15.2,50,48s-14.4,48-50,48h-9.6c-3.8,0-6,2-6,6v32q0,6-6,6h-22.4c-3.8,0-6-2.2-6-6V128.1c0-4,2-6,6-6.2Zm1.2,61.6c9.6,0,14.4-1.2,14.4-13.6s-4.8-13.6-14.4-13.6h-10.8c-3.8,0-6,2-6,6v15.2c0,3.8,2.2,6,6,6Z" fill="#fff"/><path d="M707.6,171.5c-4,.8-6-1-6.6-5-1.4-8.2-8-13.4-17.4-13.4-7.8,0-12.6,4.6-11.8,9.2,2.8,15.6,66,15.2,66,61.2,0,6-6.8,41.4-54.2,41.4-42,0-51-27.6-52-43.2-.2-3.6,1.6-5.8,5.2-6.6l22.6-5c4-.8,6.2,1,6.6,5.2.8,9.6,8.2,15.2,17.6,15.2,9.8,0,17-5.8,15.8-11.2-3.8-17-64-13.2-64-59.2-.2-6,3.4-41.4,48.2-41.4,41.2,0,50.8,26.8,52,41.2.2,3.6-1.6,5.8-5.2,6.6Z" fill="#fff"/><path d="M780.6,121.9c3.8,0,6,2.2,6,6v50c0,3.8,2.2,6,6,6h19.2c4,0,6-2.2,6-6v-50c0-3.8,2.2-6,6-6h22.4q6,0,6,6v128c0,3.8-2,6-6,6H823.8c-3.8,0-6-2.2-6-6V224.3q0-6-6-6H792.6c-3.8,0-6,2-6,6v31.6c0,3.8-2,6-6,6H758.2c-3.8,0-6-2.2-6-6v-128q0-6,6-6Z" fill="#fff"/><path d="M970.6,216.9c0,13.2-2.8,48.6-50.2,48.6s-50.2-35.4-50.2-48.6v-50c0-13.2,2.8-48.6,50.2-48.6s50.2,35.4,50.2,48.6Zm-34.4-39.4c0-15.4-1-24.8-15.8-24.8s-15.8,9.4-15.8,24.8v28.8c0,15.4,1,24.8,15.8,24.8s15.8-9.4,15.8-24.8Z" fill="#fff"/><path d="M1038.6,121.9c35.6,0,50,15.2,50,48s-14.4,48-50,48H1029c-3.8,0-6,2-6,6v32q0,6-6,6H994.6c-3.8,0-6-2.2-6-6V128.1c0-4,2-6,6-6.2Zm1.2,61.6c9.6,0,14.4-1.2,14.4-13.6s-4.8-13.6-14.4-13.6H1029c-3.8,0-6,2-6,6v15.2c0,3.8,2.2,6,6,6Z" fill="#fff"/><path d="M50.117,68.4c0,2.2-1,3.4-3,3.4h-11.2a2.693,2.693,0,0,1-3-3V60.1a2.652,2.652,0,0,0-3-3h-8.6a2.693,2.693,0,0,0-3,3v8.7a2.652,2.652,0,0,1-3,3H4.114c-1.9,0-3-1.2-3-3.4V26c0-12.6,2-26,24.5-26s24.5,13.4,24.5,26ZM32.915,26c0-4.8-.7-7.2-7.3-7.2s-7.3,2.4-7.3,7.2V36.9a2.737,2.737,0,0,0,3,3h8.6c2-.1,3-1.1,3-3.1Z" fill="#fff"/><path d="M127.213,1.8a2.652,2.652,0,0,1,3,3V44c0,7.7.5,12.4,7.9,12.4s7.9-4.7,7.9-12.4V4.8a2.693,2.693,0,0,1,3-3h11.2a2.652,2.652,0,0,1,3,3V49.3c0,6.6-1.4,24.3-25.1,24.3s-25.1-17.7-25.1-24.3V4.8a2.693,2.693,0,0,1,3-3Z" fill="#fff"/><path d="M242.613,22a2.652,2.652,0,0,0-3-3h-14a2.737,2.737,0,0,1-3-3V4.8a2.693,2.693,0,0,1,3-3h51.2a2.652,2.652,0,0,1,3,3V16a2.693,2.693,0,0,1-3,3h-14a2.693,2.693,0,0,0-3,3V68.8a2.693,2.693,0,0,1-3,3h-11.2a2.737,2.737,0,0,1-3-3Z" fill="#fff"/><path d="M388.014,49.3c0,6.6-1.4,24.3-25.1,24.3s-25.1-17.7-25.1-24.3v-25c0-6.6,1.4-24.3,25.1-24.3s25.1,17.7,25.1,24.3Zm-17.2-19.7c0-7.7-.5-12.4-7.9-12.4s-7.9,4.7-7.9,12.4V44c0,7.7.5,12.4,7.9,12.4s7.9-4.7,7.9-12.4Z" fill="#fff"/><path d="M468.711,1.8a3.454,3.454,0,0,1,3.5,2.3l13.6,33.3c.4.9,1.2.7,1.2-.3V4.8a2.693,2.693,0,0,1,3-3h11.2a2.652,2.652,0,0,1,3,3v64a2.693,2.693,0,0,1-3,3h-14.7a3.451,3.451,0,0,1-3.5-2.3l-13.6-33.3c-.4-.9-1.2-.7-1.2.3V68.8a2.693,2.693,0,0,1-3,3h-11.2a2.737,2.737,0,0,1-3-3V4.8a2.693,2.693,0,0,1,3-3Z" fill="#fff"/><path d="M617.411,49.3c0,6.6-1.4,24.3-25.1,24.3s-25.1-17.7-25.1-24.3v-25c0-6.6,1.4-24.3,25.1-24.3s25.1,17.7,25.1,24.3Zm-17.2-19.7c0-7.7-.5-12.4-7.9-12.4s-7.9,4.7-7.9,12.4V44c0,7.7.5,12.4,7.9,12.4s7.9-4.7,7.9-12.4Z" fill="#fff"/><path d="M704.109,1.8a3.067,3.067,0,0,1,3.2,2.7l7.1,29.1c.2,1,1,1,1.2,0l7.1-29.1a3.068,3.068,0,0,1,3.2-2.7h20.7a2.652,2.652,0,0,1,3,3v64a2.693,2.693,0,0,1-3,3h-11.2a2.737,2.737,0,0,1-3-3V29.4a.553.553,0,0,0-1.1-.1l-9.7,39.9a3.086,3.086,0,0,1-3.3,2.6h-6.6a3.085,3.085,0,0,1-3.3-2.6l-9.7-39.9a.552.552,0,0,0-1.1.1V68.8a2.693,2.693,0,0,1-3,3h-11.2a2.693,2.693,0,0,1-3-3V4.8a2.652,2.652,0,0,1,3-3Z" fill="#fff"/><path d="M862.81,49.3c0,6.6-1.4,24.3-25.1,24.3s-25.1-17.7-25.1-24.3v-25c0-6.6,1.4-24.3,25.1-24.3s25.1,17.7,25.1,24.3Zm-17.2-19.7c0-7.7-.5-12.4-7.9-12.4s-7.9,4.7-7.9,12.4V44c0,7.7.5,12.4,7.9,12.4s7.9-4.7,7.9-12.4Z" fill="#fff"/><path d="M939.406,1.8a2.652,2.652,0,0,1,3,3V44c0,7.7.5,12.4,7.9,12.4s7.9-4.7,7.9-12.4V4.8a2.693,2.693,0,0,1,3-3h11.2a2.652,2.652,0,0,1,3,3V49.3c0,6.6-1.4,24.3-25.1,24.3s-25.1-17.7-25.1-24.3V4.8a2.693,2.693,0,0,1,3-3Z" fill="#fff"/><path d="M1073.707,26.6c-2,.4-3-.5-3.3-2.5-.7-4.1-4-6.7-8.7-6.7-3.9,0-6.3,2.3-5.9,4.6,1.4,7.8,33,7.6,33,30.6,0,3-3.4,20.7-27.1,20.7-21,0-25.5-13.8-26-21.6a2.936,2.936,0,0,1,2.6-3.3l11.3-2.5c2-.4,3.1.5,3.3,2.6.4,4.8,4.1,7.6,8.8,7.6,4.9,0,8.5-2.9,7.9-5.6-1.9-8.5-32-6.6-32-29.6-.1-3,1.7-20.7,24.1-20.7,20.6,0,25.4,13.4,26,20.6a2.935,2.935,0,0,1-2.6,3.3Z" fill="#fff"/></svg>