<svg xmlns="http://www.w3.org/2000/svg" width="287.138" height="216.527" viewBox="0 0 287.138 216.527"><defs><style>.a{fill:#fff;}.b{fill:#abd0ff;}.c{fill:none;}</style></defs><path class="a" d="M580.015-286.464a.953.953,0,0,0-1.08-1.079H573.9a.986.986,0,0,1-1.08-1.081v-4.031a.969.969,0,0,1,1.08-1.08h18.43a.955.955,0,0,1,1.08,1.08v4.031a.97.97,0,0,1-1.08,1.081h-5.04a.968.968,0,0,0-1.079,1.079v16.846a.969.969,0,0,1-1.08,1.08H581.1a.985.985,0,0,1-1.08-1.08Z" transform="translate(-348.72 317.898)"/><path class="a" d="M600.68-293.735a.985.985,0,0,1,1.08,1.08v9a.984.984,0,0,0,1.079,1.08h3.456a.969.969,0,0,0,1.08-1.08v-9a.985.985,0,0,1,1.079-1.08h4.032a.955.955,0,0,1,1.08,1.08v23.037a.969.969,0,0,1-1.08,1.08h-4.032a.985.985,0,0,1-1.079-1.08V-275.3a.955.955,0,0,0-1.08-1.08h-3.456a.969.969,0,0,0-1.079,1.08v5.687a.97.97,0,0,1-1.08,1.08h-4.032a.985.985,0,0,1-1.08-1.08v-23.037a.955.955,0,0,1,1.08-1.08Z" transform="translate(-348.72 317.898)"/><path class="a" d="M633.366-293.735a.955.955,0,0,1,1.08,1.08v4.031a.97.97,0,0,1-1.08,1.081h-8.711a.969.969,0,0,0-1.08,1.079v1.152a.985.985,0,0,0,1.08,1.08h5.579a.955.955,0,0,1,1.08,1.08v4.031a.969.969,0,0,1-1.08,1.08h-5.579a.969.969,0,0,0-1.08,1.08v1.152a.985.985,0,0,0,1.08,1.08h8.711a.955.955,0,0,1,1.08,1.08v4.031a.955.955,0,0,1-1.08,1.08H618.247a.985.985,0,0,1-1.079-1.08v-23.037a.969.969,0,0,1,1.079-1.08Z" transform="translate(-348.72 317.898)"/><path class="b" d="M360.491-122.447c0-.044-.01-.493-.019-.252l-.027.718c0-.009,0-.018-.007-.027a1.714,1.714,0,0,0-.348-.638c-.139-.24-.2-.245-.186-.012-.02.166-.04.332-.061.5-.073.581-.171,1.158-.254,1.737l-9.822-1.492c-.049-.812-.117-1.623-.153-2.435-.014-.325-.024.409-.019.252-.016.5-.01,1-.011,1.494,0,1.023-.028,2.053.017,3.075q.147,3.321.432,6.635.149,1.719.339,3.435a12.27,12.27,0,0,0,.2,1.715c-.02.384.021.45.121.2l.236-.439.394-.732a4.567,4.567,0,0,1,.393-.731,5.013,5.013,0,0,1,.315.744q.309.747.591,1.505t.538,1.525a5.8,5.8,0,0,0,.249.769c.2.407.113.248.23-.165a6.913,6.913,0,0,1,.451-1.58c.2-.332.1-.142.163.139a5.462,5.462,0,0,1,.043.878l.18,3.686.006.089a40.606,40.606,0,0,1,2.029-8.432q.082-.233.169-.462c.045.2.089.406.134.61l.2.915c.075.339.012.851.21.29a6.307,6.307,0,0,0,.21-1.13,19.66,19.66,0,0,0,.187-2.438l.856.86.436.439c.041-.22.082-.439.121-.659q.237-1.317.44-2.641t.37-2.652c.061-.488.014-.883.389-.288a1.912,1.912,0,0,1,.142.322c0,.273,0,.545,0,.818,0,.076.012.179.023.284v.359l.009-.251a.9.9,0,0,1-.016.34,4.332,4.332,0,0,0,.169-1.443q.019-1.767,0-3.536a6.441,6.441,0,0,0-.068-1.209C360.5-121.992,360.5-122.219,360.491-122.447Z" transform="translate(-348.72 317.898)"/><path class="b" d="M377.663-140.273c0-.59,0-1.179-.007-1.768a2.52,2.52,0,0,1-.018-.732c-.412.8-.8,1.612-1.18,2.428l-5.637-.341a14.181,14.181,0,0,0-.825-2.55,3.464,3.464,0,0,1-.018.732c-.006.59-.007,1.179-.007,1.768s0,1.179.007,1.768a2.381,2.381,0,0,0,.018.732,13.919,13.919,0,0,1,.9,2.851,13,13,0,0,1,.213,1.56c0,.559-.008,1.118,0,1.677,0,.042.015.082.019.123v.129c0-.036,0-.072,0-.108a4.675,4.675,0,0,0,.535,1.334q.647,1.38,1.229,2.788a3.167,3.167,0,0,0,.277.681c.058.262.1.26.14-.008.042-.134.084-.269.127-.4q.224-.7.463-1.407.513-1.5,1.1-2.977,1.173-2.952,2.631-5.776a2.91,2.91,0,0,0,.018-.733C377.662-139.095,377.663-139.684,377.663-140.273Z" transform="translate(-348.72 317.898)"/><path class="b" d="M400.073-122.048c0,.077,0,.154,0,.23-.085.339-.248.712-.5.8-.212.076-1.054-.882-1.263-1.075l-.006.089-.1,1.48-2.1-.271c-.057-.09-.1-.188-.161-.275-.043-.061-.29-.474-.369-.477s-.38.517-.428.581l-.032.044-1.5-.194a1.626,1.626,0,0,0-.344-.226v.181l-2.1-.271c-.3-.852-.2-1.824-.744-2.6a4.027,4.027,0,0,1-.018.732c-.006.589-.007,1.179-.007,1.768s0,1.178.007,1.768c0,.16-.069.607.018.732.706,1.011.255,3.088,1.582,3.646a.987.987,0,0,0,1.31-.653,1.309,1.309,0,0,0,.017-.268,1.68,1.68,0,0,1,.953,1.345c0,.052,0,.1.006.155l.748-1.018.374-.508c.183-.248.166-.223.351.016a6.743,6.743,0,0,1,.967,1.74c0,.2.008.389.008.582,0,.87-.051,1.767.026,2.635a1.566,1.566,0,0,0,.1.457.8.8,0,0,0,.088.181c.082.105.021.119.09.038.155-.18.129-.824.143-1.059,0-.089.006-.179.011-.269.061.088.122.176.176.269a3.878,3.878,0,0,1,.481,1.453l.007-.089.219-3.309.107-1.607.056-.851a4.083,4.083,0,0,1,.056-.851c.259-.136.914.886,1.149.961.125.039.11.034.222-.086a1.7,1.7,0,0,0,.214-.285,1.841,1.841,0,0,0,.213-.529,3.126,3.126,0,0,0,.056-.641c.017-.761.015-1.523.015-2.284a13.476,13.476,0,0,0-.084-2.924A4.089,4.089,0,0,1,400.073-122.048Z" transform="translate(-348.72 317.898)"/><path class="b" d="M421.626-121.242c0-.029,0-.062,0-.089C421.626-121.311,421.626-121.278,421.626-121.242Z" transform="translate(-348.72 317.898)"/><path class="b" d="M427.409-119.189c0-.589,0-1.179-.008-1.768a4.006,4.006,0,0,1-.017-.732l-.946.628a5.233,5.233,0,0,0-1.051.7c-.147.179-.065.051-.119.283a4.651,4.651,0,0,1-.036.615c-.21.051-.536-.7-.63-.854a.657.657,0,0,1,.015.2c-.008-.068-.006-.136-.015-.2v.518c-.009.123-.018.218-.018.215v.039l-1.069-.137c-.09-.255-.178-.509-.272-.744l-1.592-3.932a3.269,3.269,0,0,1-.02.985c-.006.727-.006,1.453,0,2.18,0,.507,0,.153,0-.047,0,.141,0,.3,0,.428,0,.3-.011.591-.017.886l-5.074-.648c-.173-.847-.322-1.7-.431-2.555a20.669,20.669,0,0,1-.025,2.5,20.439,20.439,0,0,0,.025,2.5,33.607,33.607,0,0,0,.7,3.816q.234.943.522,1.87a4.217,4.217,0,0,0,.3.923c.083.015.642-.714.7-.776l.155-.172c.053-.115.1-.115.145,0,.091.041.2.273.263.355q.258.36.491.736a13.4,13.4,0,0,1,.828,1.562,13.628,13.628,0,0,1,1.02,3.491l.007-.089c.293-4.3.406-8.6.433-12.908l2.347,5.8c.129.318.11.456.3.092a2.987,2.987,0,0,0,.225-.571,4.758,4.758,0,0,0,.123-1.22l.563.912.007-.089a2.8,2.8,0,0,1,.042-.739c.123-.316.48-.471.743-.646l1.367-.907a4.153,4.153,0,0,0,.017-.732C427.408-118.011,427.409-118.6,427.409-119.189Z" transform="translate(-348.72 317.898)"/><path class="b" d="M463.514-120.045c-.009-.155-.013-.092-.011.179l0,.092-4.858-.03c-.015-.065-.033-.134-.047-.2a8.455,8.455,0,0,0-1.263-3.375c-.382-.5-.357-.643-.6-.078a5.175,5.175,0,0,0-.221.909,24.709,24.709,0,0,0-.426,2.536,1.835,1.835,0,0,0-.01.19l-2.191-.013c-.619-.523-.6-1.721-1.167-2.263-.659-.633-.714.164-.9.771-.151.49-.292.984-.435,1.476l-1.721-.01c-.13-.26-.261-.52-.391-.781l-.007.09c-.012.229-.03.459-.043.688l-5.478-.034a2.569,2.569,0,0,0-.09-.3,1.608,1.608,0,0,0-.463-.73q-.4-.505-.307.288c-.036.242-.072.485-.107.727v0l-7.635-.046a23.769,23.769,0,0,1-.422-2.5c.182,1.642-.182,3.35,0,5a22.935,22.935,0,0,0,.462,2.756,7.167,7.167,0,0,0,.808,2.562c.813.96,1.395-.663,2.235-.648.721.013.9,1.087,1.083,1.611a8.033,8.033,0,0,0,.426,1.2q.09.7.252.176l.329-.667.22-.445q.118-.789.555-.183c.305.1.527.609.838.656q.345.387.24-.353l.107-.727.216-1.453a18.567,18.567,0,0,1,.394-2.665c.165-.535.129-.563.5-.066a2.365,2.365,0,0,1,.36.789l.062.3c0,.038.006.05.01.081-.023.375.056.9.059,1.152a15.083,15.083,0,0,0,.06,1.562c.305,2.637,3.046,4.133,3.3,6.766l-.015-2.676a3.14,3.14,0,0,1,.013.5l.014-.067q0,.665.008,1.329c0-.31.016-.637.032-.97a8.524,8.524,0,0,1-.054,2.208,9.019,9.019,0,0,1,.195-.934c.065,0,.389.581.437.652s.374.657.438.653c.026,0,.107-.9.117-.978q.242-2.078.428-4.162.158-1.761.276-3.525a6.465,6.465,0,0,1,.12-1.965c.187-.335.05-.3.354-.009a4.756,4.756,0,0,1,.534,1.067,6.8,6.8,0,0,0,.428.853c.308.437.11.479.33-.007a13.11,13.11,0,0,0,.484-1.731q.251-.862.516-1.722c.152-.488.169-1.095.745-.652.7.54.566,1.646,1.195,2.25a1.158,1.158,0,0,0,.526.343c.168.037.425-.082.526-.06.219.05.281.149.479.43l.6.85.007-.089a25.717,25.717,0,0,1,.327-2.93c.048-.277.322-2.444.57-2.508.267-.068.928,1.25,1.017,1.444a10.1,10.1,0,0,1,.6,1.915c.5,2.13,1.049,5.14,3.7,5.467a3.248,3.248,0,0,0,.012-.342q.046-1.986.094-3.973c.329.394.507.96.827,1.322q.1.723.285.044a2.556,2.556,0,0,0,.145-.708,15.511,15.511,0,0,0,.055-2.16l.007-.1c.42-.743.754-1.66,1.81-1.269a21.611,21.611,0,0,1,.025-2.5,11.169,11.169,0,0,0-.025-2.5C463.982-122.789,463.608-121.366,463.514-120.045Z" transform="translate(-348.72 317.898)"/><path class="b" d="M505.784-121.9a2.588,2.588,0,0,1-.017-.732,14.593,14.593,0,0,0-.822,2.488l-4.651-.066-1.11-2.1q-.234-.441-.467-.882-.245-.877-.42-.011a6.471,6.471,0,0,0-.7,1.741c-.15.4-.288.8-.426,1.2l-3.86-.055c-.028-.138-.053-.277-.093-.408a7.543,7.543,0,0,0-1.36-2.585c-.825-1-1.426-.951-1.779.3-.123.438-.233.88-.35,1.32l-.233.879c-.028.287-.067.43-.117.436h-.006c-.051,0-.113-.143-.187-.427q-.192-.43-.385-.862-.265-.891-.249.058a4.613,4.613,0,0,0-.142,1.218l-13.168-.187a10.251,10.251,0,0,1,0-2.5,32.022,32.022,0,0,0-.417,4.208,8.686,8.686,0,0,0,0,1.684c.02.837.065,1.666.162,2.465a4.17,4.17,0,0,0,1.471,2.853c.875.666,2.289.414,2.874,1.348v.818a1.148,1.148,0,0,0,.726-1.088q.945,1.866,1.891,3.733l.555,1.1c.2.4.163.653.6.546.377-.093.723-.662,1.014-.883.876-.667,1.494-.127,1.886.75.6,1.348,1.063,2.781,1.588,4.161a3.258,3.258,0,0,0,.013-.342q.057-3.689.288-7.371.129-2.043.313-4.082a15.219,15.219,0,0,1,.348-3.428l.056-.489.386.862q.192.432.385.862l.234-.879c.174-.658.3-2.422.889-2.766,1.394-.815,2.743,3.262,2.916,4.1.145.706.17,1.653.809,2.13a1.23,1.23,0,0,0,.863.243c.1-.013.774-.406.672-.435l.286.65q.191.712.261-.128a7.275,7.275,0,0,0,.386-1.352q.476-1.57,1.068-3.1a12.157,12.157,0,0,1,.715-1.733,10.313,10.313,0,0,1,.7,1.323l1.635,3.088,1.635,3.088.468.883q.154.789.468.168c.518-.181.543-.586,1.176-.352a3.281,3.281,0,0,1-.1-1.279c.03.43.062.858.1,1.279v-2.736c.019-.244.044-.488.082-.73.064-.43.151-.857.255-1.279a14.718,14.718,0,0,1,.864-2.455,7.954,7.954,0,0,0,.025-2.5C505.792-120.719,505.791-121.308,505.784-121.9Z" transform="translate(-348.72 317.898)"/><path class="b" d="M462.036-159.585c0-.064,0-.128,0-.192v.191l-3.956-1.04c-1.48-1.257-3.01-2.462-4.513-3.687a6.9,6.9,0,0,1-.018.732q-.009.883-.008,1.768c0,.589,0,1.179.008,1.768,0,.117-.059.67.018.732l3.361,2.739a30.867,30.867,0,0,1,2.889,2.5,8.278,8.278,0,0,1,1.11,1.42,2.677,2.677,0,0,0,.178.314q.056.279.133.085c.05-.076.1-.154.143-.234a5,5,0,0,0,.344-.747,5.539,5.539,0,0,0,.309-1.735c0-.049,0-.1,0-.147a1.546,1.546,0,0,1,.845.384c.125.115.182.255.293.376.024.165.066.189.126.074.06-.071.117-.143.173-.216a7.073,7.073,0,0,0,1.035-1.939,3.133,3.133,0,0,0,.018-.732c.006-.589.007-1.178.007-1.768s0-1.178-.007-1.767a2.747,2.747,0,0,1-.018-.733,7.1,7.1,0,0,1-1.035,1.939l-.114.145a.539.539,0,0,1-.056.1l-.106-.028a.487.487,0,0,1-.023-.075c-.111-.087-.182-.274-.293-.376a1.548,1.548,0,0,0-.857-.387,3.049,3.049,0,0,1,.022.535Zm-.008,1.969v.415c-.009.712-.018,1.351-.019,1.626L462-157.164c.009-.152.025-.3.019-.454Z" transform="translate(-348.72 317.898)"/><path class="b" d="M450.476-140.122a18.784,18.784,0,0,0,.025,2.5,2.223,2.223,0,0,0,1.752,1.775,5.427,5.427,0,0,0,3.186-.59c1.068-.4,1.639.359,2.3,1.067.465.5,1.486,1.054,2,.315a2.914,2.914,0,0,0,.018-.732q.009-.883.007-1.768c0-.589,0-1.178-.007-1.768,0-.143-.088-.63-.018-.732-.509.738-1.531.183-2-.315-.662-.708-1.233-1.466-2.3-1.067a5.442,5.442,0,0,1-3.186.59,2.22,2.22,0,0,1-1.752-1.775,5.535,5.535,0,0,1-.017.732C450.477-141.3,450.476-140.711,450.476-140.122Z" transform="translate(-348.72 317.898)"/><path class="b" d="M500.554-136.6q0-1.26-.007-2.519c0-.5,0-1-.011-1.494,0,.147,0-.571-.019-.252-.052.738-.04,1.488-.028,2.235a2.933,2.933,0,0,0-.778-1.487,2.953,2.953,0,0,0-.8-.583,2.794,2.794,0,0,0-.422-.169.719.719,0,0,0-.241-.061c-.092.012-.148.134-.209.215l-.37.491a3.065,3.065,0,0,1-.4.535l-.067.089-.151-.18-.225-.269-.415-.5-1.769-2.114a4.639,4.639,0,0,1-.017.732c-.007.59-.008,1.179-.008,1.768s0,1.179.008,1.768l0,.391a3.229,3.229,0,0,0,.012.341l1.732,2.069.452.54.225.269.113.135c.037.074.072.06.105-.044a2.783,2.783,0,0,0,.37-.491l.4-.535c.033-.044.113-.206.168-.223s.182.04.242.057a2.767,2.767,0,0,1,.462.181,2.96,2.96,0,0,1,.769.554,2.932,2.932,0,0,1,.848,1.711,7.563,7.563,0,0,1,.02-.986Q500.558-135.508,500.554-136.6Z" transform="translate(-348.72 317.898)"/><path class="b" d="M507.2-159.2c0-.589,0-1.179-.007-1.768a3.535,3.535,0,0,1-.018-.732,6,6,0,0,0-1.761,2.2c-.059.126-.1.258-.154.387l-3.787.17a8.494,8.494,0,0,1-.306-1.627l0-.039c0-.16,0-.319,0-.478,0-.045-.012-.493-.019-.252,0,.06,0,.12,0,.18-.023-.41-.03.026-.02,1.3-.02,1.291-.024,2.584.023,3.87a8.883,8.883,0,0,0,.165,1.445,8.3,8.3,0,0,0,1.141,2.81v-.348a.47.47,0,0,1,.676-.183.931.931,0,0,1,.347.449l.028.078c.015.113.037.107.067-.019a1.321,1.321,0,0,0,.131-.356,5.424,5.424,0,0,0,.2-1.568c0-.02,0-.04,0-.06l.669.582a2.988,2.988,0,0,0,.353.307c.026-.013.037-.228.046-.275a5.891,5.891,0,0,1,.447-1.37,6,6,0,0,1,1.761-2.2,3.89,3.89,0,0,0,.018-.732C507.2-158.022,507.2-158.611,507.2-159.2Z" transform="translate(-348.72 317.898)"/><path class="b" d="M514.473-155.472a2.523,2.523,0,0,0,.909,1.086c.041.027.09.038.133.063a17.41,17.41,0,0,0,.7,3.306c.177.544.379,1.081.606,1.606-.015-.034.18.42.187.418a4.072,4.072,0,0,0,.12-.447q.14-.5.3-1,.264-.827.579-1.637a4.605,4.605,0,0,1,.35-.856,6.977,6.977,0,0,1,.317.949,5.517,5.517,0,0,0,.317.95c.108.189-.007.381.11.021.041-.13.05-.3.077-.432a8.232,8.232,0,0,1,.54-1.664,8.071,8.071,0,0,1,.4-.78c.035-.059.112-.247.172-.28l.059-.092c.038.1.079.209.121.312.118.29.251.572.4.849,0,.671.006,1.343.032,2.012l.006.089a3.043,3.043,0,0,0,.451-1.272c.142.217.288.43.447.635l.068.089q.144.325.18.057c.055-.049.092-.277.116-.348q.291-.871.581-1.742a3.613,3.613,0,0,0,1.472-1.82l.039.051a1.815,1.815,0,0,0,1.135.845,1.92,1.92,0,0,0,1.382-.384c.969-.7,1.109-2.025,1.222-3.123a24.809,24.809,0,0,0,.025-2.5c0-.816-.108-1.688-.025-2.5a5.448,5.448,0,0,1-.717,2.571l-2.869.283c-.059-.076-.118-.15-.176-.226a.588.588,0,0,1,0-.073c-.005.019-.013.035-.018.053l-.061-.078a1.429,1.429,0,0,0-.393-.408c-.2-.1-.105-.147-.243-.012a2.23,2.23,0,0,0-.193.581l-.094.278-2.574.254c-.11-.134-.43-.538-.6-.541-.147,0-.476.479-.634.662l-3.865.381-.084-.05c-.1-1.029-.129-2.847-.131-.576,0-.745,0-1.85-.025-1.85s-.025,1.744-.025,2.316a2.554,2.554,0,0,1-.826-1.028,3.46,3.46,0,0,1-.018.732c-.006.589-.007,1.179-.007,1.768s0,1.179.007,1.768A2.32,2.32,0,0,0,514.473-155.472Z" transform="translate(-348.72 317.898)"/><path class="b" d="M547.647-123.451a12.32,12.32,0,0,1-.023,1.329v-1.586c0-.033-.006-.067-.01-.1-.284,1.613-2.487.747-3.422.489a1.767,1.767,0,0,0-2.161.559,11.905,11.905,0,0,1-.681,1.125l-3.51-.028-.469-.576c-.249-.307-.225-.436-.493-.3a4.032,4.032,0,0,0-.527.867l-.426,0a7.379,7.379,0,0,0-.5-.785c-.176-.177-.823-.775-1.075-.665-.183.079-.39.917-.517,1.434l-.953-.008a10.383,10.383,0,0,0-1.156-2.531,3.658,3.658,0,0,0-.476-.679c-.328-.3-.052-.334-.35-.1s-.485,1.185-.63,1.55c-.228.576-.438,1.158-.656,1.738l-10-.081a41.9,41.9,0,0,0-5.765-2.546,17.9,17.9,0,0,1-.025,2.5,10,10,0,0,0,.025,2.5l3.637,1.582a12.176,12.176,0,0,1,2.847,1.459,2.89,2.89,0,0,1,.82.972c.026.056.178.607.187.609a3.568,3.568,0,0,1,.4-.514A1.447,1.447,0,0,1,524-113.994l.006.089c1.276-1.8,3.112.2,3.625,1.514q.124.338.237.678.144-.455.293-.91.3-.909.612-1.812.55-1.579,1.153-3.141.343-.893.7-1.778.18-.443.365-.884c.177.213.344.433.5.66a10.378,10.378,0,0,1,1.44,2.976,9.67,9.67,0,0,0,.284,1.212q.03.842.214-.04l.306-.9c.077-.223.427-1.741.613-1.8.318-.1,1.026.59,1.2.794a2.647,2.647,0,0,1,.4.608q.1.677.358.01l.452-.66q.213-.651.48-.018c.36.22.5.918.887,1.091q.165.35.249-.081a.81.81,0,0,1,.494-.231c.863-.165,1.636.782,2.427.051.582-.537.607-1.464,1.408-1.807,1.417-.606,3.366,1.5,4.644.105.521-.571.292-1.724.294-2.414C547.65-121.588,547.71-122.533,547.647-123.451Z" transform="translate(-348.72 317.898)"/><path class="b" d="M547.589-124.085c.013.091.015.185.025.277v0C547.606-123.9,547.6-123.994,547.589-124.085Z" transform="translate(-348.72 317.898)"/><path class="b" d="M547.647-123.451c0-.09-.016-.178-.023-.267v.01C547.632-123.622,547.642-123.537,547.647-123.451Z" transform="translate(-348.72 317.898)"/><path class="b" d="M547.624-123.846c0,.013-.007.023-.009.036l.009.092Z" transform="translate(-348.72 317.898)"/><path class="b" d="M588.624-125.406a12.163,12.163,0,0,1-.025,2.5h0l-1.1.026a4.425,4.425,0,0,0-.535-.959c-.121-.159-.9-1.178-1.11-1.118a7.794,7.794,0,0,0-.311,1.229c-.1.307-.219.6-.338.9l-23.815.557a3.066,3.066,0,0,1-.983-1.97c.008-.169,0-.34.02-.508a24.511,24.511,0,0,0-.026,5.607c.2,1.478,1.471,2.42,2.7,3.08a16.964,16.964,0,0,1,2.057,1.172,11.985,11.985,0,0,1,1.359,1.471,1.049,1.049,0,0,0,1.5.092c.137-.119.288-.686.357-.722.125-.066,1.175.636,1.332.721l.007-.089a1.575,1.575,0,0,1,1.35-1.481c.624-.072,1.129.4,1.73.406,1.51.018,1.187-2.265,2.547-2.4.632-.061.924.666,1.582.422.345-.127.441-.543.708-.722l.165-.3c.105.179.2.363.294.55a11.339,11.339,0,0,1,.813,2.133,11.532,11.532,0,0,1,.258,1.219l.057.412c.023.322.043.556.059.717q0,.635,0,1.269c.017-.356.035-.719.053-1.084a2.728,2.728,0,0,1-.06,1.173,19.425,19.425,0,0,1,1.865-4.111c.549-.728,2.378-1.3,2.482.142l.006.089a12.634,12.634,0,0,0,2.093-4.355c.158-.622.078-.714.589-.231a5.96,5.96,0,0,1,.662.731,14.183,14.183,0,0,1,1.049,2.109l.092.384a5.106,5.106,0,0,0,.363-.757,5.306,5.306,0,0,0,.271-1.014,10.533,10.533,0,0,0,.092-1.675,5.19,5.19,0,0,0,.04-1.65A15.345,15.345,0,0,0,588.624-125.406Zm-28.23,1.455v.865C560.382-123.376,560.388-123.664,560.394-123.951Z" transform="translate(-348.72 317.898)"/><path class="b" d="M584.045-142.928a5.369,5.369,0,0,1-.018.733c-.006.566-.007,1.133-.007,1.7,0,.022-.006.044-.01.065l-1.134-.069-1.028-1.382c.035.047-.011.286-.012.341,0,.241,0,.481-.007.722l0,.035a.591.591,0,0,1,0,.126v.094h0l0-.066c0-.063,0-.126,0-.189-.044-.534-.064-.441-.059.252l-1.239-.076a1.539,1.539,0,0,0-.076-.17c-.1-.174-.036-.093-.084.035a.594.594,0,0,1-.067.121l-1.644-.1a1.147,1.147,0,0,1-.154-.149c-.515-.708-.472-1.678-.941-2.418a3.875,3.875,0,0,1-.018.733c-.006.589-.007,1.178-.007,1.767s0,1.179.007,1.768c0,.169-.069.6.018.732a5.764,5.764,0,0,1,.556,1.522,2.044,2.044,0,0,0,.677,1.178,1.45,1.45,0,0,0,1.023.251.768.768,0,0,0,.413-.192.584.584,0,0,0,.126-.185c.058-.133-.013-.242.1-.063a6.56,6.56,0,0,1,.379.943l.378.943a9.21,9.21,0,0,0,.379.943,7.026,7.026,0,0,0,.124-1c.1-.951.137-1.907.157-2.864l1.273,1.71.305.41.152.205.115.153c.03.071.049.069.056,0,.077-.071.1-.35.13-.453q.066-.256.114-.518a18.217,18.217,0,0,0,.148-3.184A28.836,28.836,0,0,0,584.045-142.928Zm-2.229,4.731c0-.155.01-.31.012-.466,0,.35,0,.7,0,1.05C581.825-137.825,581.821-138,581.816-138.2Z" transform="translate(-348.72 317.898)"/><path class="b" d="M584.533-159.251l-.691-.053-.017-.038-.242-.522a2.806,2.806,0,0,0-.243-.522,4.372,4.372,0,0,0-.43.566l-.32.42-.583-.045-.761-.883a6.264,6.264,0,0,0-.779-.9c-.118-.229-.176-.25-.174-.061-.018.119-.036.239-.051.359-.027.2-.049.4-.069.6-.024.247-.036.5-.052.743l-1.236-.095a1.7,1.7,0,0,0-.824-.915,1.054,1.054,0,0,0-.722-.017.763.763,0,0,0-.341.228c-.156.2,0,.255-.271.134-.569-.249-.837-1.208-.887-1.762.006-.134,0-.268.013-.4-.011.129-.007.26-.014.39l0-.017v.057c-.038.782-.025,1.569-.025,2.35a21.669,21.669,0,0,0,.04,2.78,2.524,2.524,0,0,0,.487,1.2,1.332,1.332,0,0,0,.388.4q.176.243.2-.02a.63.63,0,0,1,.17-.21c.687-.573,1.458.151,1.77.752.519,1,.891,2.1,1.324,3.14a.709.709,0,0,1-.016-.22c.007.073.008.147.016.22v-.512c.008-.107.017-.2.017-.221.007-.589.008-1.178.008-1.767,0-.624.015-1.26,0-1.89a.7.7,0,0,1,.084-.309c-.008-.149.024-.159.1-.029l.234.271.311.361.623.722c.176.2.46.722.7.812.054.122.1.121.15,0l.144-.189.287-.377.287-.378.143-.189c.078-.16.134-.121.169.115a5.079,5.079,0,0,1,.388.835c.027.058.14.4.194.418s.349-.251.4-.288l1.707-1.226a12.841,12.841,0,0,1,1.706-1.227c.244-.117.129-.15.341.009a1.294,1.294,0,0,1,.286.431,2.63,2.63,0,0,1,.266.888,4.678,4.678,0,0,1-.021-.791l.008.45,0-.7c.015-.275.034-.548.035-.8,0-.941,0-1.883-.011-2.823-.007-.365-.013-.729-.02-1.093,0,.068.027-.528-.019-.252a4.192,4.192,0,0,0-.024.783,2.441,2.441,0,0,0-.319-.848c-.046-.071-.222-.4-.323-.4a3.54,3.54,0,0,0-.6.433l-2.209,1.587C585.009-159.636,584.774-159.419,584.533-159.251Zm-8.7-2.693q.011,1.014.02,2.026h0C575.825-160.6,575.811-161.272,575.838-161.944Z" transform="translate(-348.72 317.898)"/><path class="b" d="M607.382-122.674q-.307-.414-.616-.827a4.074,4.074,0,0,0-.616-.827l-.1-.138c-.024.113-.046.226-.069.34-.027.141-.053.283-.079.425q-.09.511-.162,1.027c-.095.689-.157,1.38-.2,2.072l-.454-.1a3.368,3.368,0,0,0-1-1.554,1.981,1.981,0,0,0-2.59-.074,1.116,1.116,0,0,0-.037-.316.7.7,0,0,0-.258-.363c-.258-.186-.23.016-.288.247l-.259,1.033-1.106-.257-.142-.217a7.534,7.534,0,0,1-1.1-1.819v-.023a3.164,3.164,0,0,1-.017-.732,2.375,2.375,0,0,0-.068.624c-.014.719-.013,1.439-.013,2.158a23.535,23.535,0,0,0,.029,2.643,5.886,5.886,0,0,0,1.217,2.225L600.2-116l.2.3.087-.345c.05-.2.1-.4.151-.6l.151-.6a2.957,2.957,0,0,1,.173-.69c-.018-.173.032-.217.149-.133a.638.638,0,0,1,.182.132.666.666,0,0,1,.186.387v.236c.011-.073.012-.15.02-.225a.463.463,0,0,1-.02.225,1.976,1.976,0,0,1,2.613.056,5.187,5.187,0,0,1,1.4,3.125,4.407,4.407,0,0,1,.017-.732c0,.132,0-.135,0-.137.006-.144.011-.288.019-.432q.024-.474.066-.947.081-.906.223-1.8.067-.429.149-.853a2.212,2.212,0,0,1,.085-.425,3.44,3.44,0,0,1,.257.345q.538.723,1.078,1.447a4.425,4.425,0,0,1,.018-.733q.009-.883.008-1.767c0-.59,0-1.179-.008-1.768C607.4-122.1,607.469-122.558,607.382-122.674Z" transform="translate(-348.72 317.898)"/><path class="b" d="M633.612-122.115a2.011,2.011,0,0,1,0,.46,1.163,1.163,0,0,1-.241.557c-.037.044-.2.247-.272.235a3.366,3.366,0,0,1-.314-.5l-.523-.839-.261-.419-.157-.251-.052.184a5.549,5.549,0,0,0-.287,1.013,2.6,2.6,0,0,1-.13.46c-.016.212-.048.244-.1.093l-.133-.273q-.466-.956-.932-1.911l-.444-.91c-.014-.028-.208-.459-.222-.455a3.212,3.212,0,0,0-.188.536,19.807,19.807,0,0,0-.537,1.913c-.148.649-.261,1.3-.344,1.963l-.564-.071a3.572,3.572,0,0,0-.592-.842,3.122,3.122,0,0,0-.275-.252l-.118-.092q-.139-.186-.153.009c-.088.081-.114.35-.155.474l-.169.519-.311-.039a3.608,3.608,0,0,0-.108-.448,3.837,3.837,0,0,0-.393-.794,1.446,1.446,0,0,0-.237-.327c-.178-.147-.1-.1-.187.081a1.916,1.916,0,0,1-.484.638c-.074.065-.2.2-.3.209-.136.012-.161-.171-.226-.311l-.894-1.905a3.523,3.523,0,0,1-.018.732c-.006.589-.007,1.179-.007,1.768s0,1.179.007,1.768a2.32,2.32,0,0,0,.018.732q.385.822.772,1.646a3.008,3.008,0,0,0,.2.433c.118.167.022.159.209.1a1.4,1.4,0,0,0,.535-.495,1.892,1.892,0,0,0,.155-.25,1.371,1.371,0,0,0,.087-.2c.011-.09.037-.092.078-.008.162.062.331.446.416.6a3.788,3.788,0,0,1,.478,1.6l.006.089a8.711,8.711,0,0,1,.5-1.517q-.008-.283.123-.147a2.149,2.149,0,0,1,.179.135,3.229,3.229,0,0,1,.427.416,3.466,3.466,0,0,1,.839,1.858c0,.143,0,.286,0,.43,0,.046,0,.491.019.252a20.1,20.1,0,0,1,.694-4.58q.149-.547.33-1.087a2.527,2.527,0,0,1,.188-.536,3.83,3.83,0,0,1,.266.546l1.11,2.275.266.546c.142.291.12.321.212,0q.156-.552.313-1.105l.078-.276c.01-.209.045-.242.1-.1.122.067.238.382.314.5l.627,1.006c.089.142.18.41.321.378.119-.026.238-.216.3-.31a1.528,1.528,0,0,0,.2-.83c.039-1.08.017-2.167.013-3.248A10,10,0,0,0,633.612-122.115Z" transform="translate(-348.72 317.898)"/><path class="b" d="M410.147-160.067c0-.114,0-.228-.013-.342a.383.383,0,0,0-.467-.2.493.493,0,0,0-.149.088,1.559,1.559,0,0,0-.052-.3.91.91,0,0,0-1.227-.661c-.285.135-.535.266-.839.093a.826.826,0,0,1-.2-.2c0-.33,0-.661,0-.991l0-.391a3.257,3.257,0,0,0-.012-.342,3.73,3.73,0,0,0-.243.837,6.493,6.493,0,0,0-.028.751c-.014,1.075-.013,2.15-.007,3.225a11.792,11.792,0,0,0,.031,1.381,1.031,1.031,0,0,0,.1.342.907.907,0,0,0,.462.437c.458.177.8-.324,1.258-.21a.879.879,0,0,1,.44.284c0,.424,0,.848.024,1.269a2.753,2.753,0,0,0,.058.444.886.886,0,0,0,.031.128c.021.053-.009.07.027.027a.864.864,0,0,0,.077-.283,4.461,4.461,0,0,0,.116-.838c.041-.024.065-.065.117-.078a.385.385,0,0,1,.488.2c.007-.071.01-.143.01-.215,0-.172.007-.345.008-.517.006-.589.007-1.178.007-1.768s0-1.178-.007-1.767Z" transform="translate(-348.72 317.898)"/><path class="b" d="M617.22-160.6c0-.074-.026-.731-.018-.732a2.824,2.824,0,0,0-2.024,1.821l-.079-.027a3.4,3.4,0,0,0-.088-.5,1.83,1.83,0,0,0-.467-.886c-.11-.086-.069-.045-.189.021a.7.7,0,0,1-.2.077.865.865,0,0,1-.4-.021,2.337,2.337,0,0,1-1.3-1.29c-.3-.529-.646-1.12-1.3-1.227.03,0-.025,2.31-.025,2.5,0,.589,0,1.179.007,1.768a5.608,5.608,0,0,0,.018.732c1.075.177,1.244,1.519,1.959,2.15a1.145,1.145,0,0,0,1.27.291c.083-.034.05-.068.126-.035.055.023.108.127.145.178a2.25,2.25,0,0,1,.209.355,2.28,2.28,0,0,1,.169.539v.116c0,.085.011.181.018.276v.456a2.823,2.823,0,0,1,2.148-2.3c.025-.006.019-.839.018-.733q.009-.883.007-1.767C617.227-159.424,617.227-160.013,617.22-160.6Z" transform="translate(-348.72 317.898)"/><path class="b" d="M384.982-161.248a1.887,1.887,0,0,0-.1-.491c-.007.072-.01.143-.01.215,0,.172-.007.345-.008.517s0,.33,0,.5c-.01.027-.008.058-.02.085a1.323,1.323,0,0,1-.337.513c-.067.051-.039.016-.052-.058a1.2,1.2,0,0,0-.027-.119,1.385,1.385,0,0,0-.094-.249,1.546,1.546,0,0,0-.317-.428,1.712,1.712,0,0,0-.953-.465,1.427,1.427,0,0,0-.407.017h0v-.022c0-.589,0-1.179-.007-1.768l0-.391a3.229,3.229,0,0,0-.013-.341,5.587,5.587,0,0,0-.363,1.952,17.3,17.3,0,0,0-.072,2.468.7.7,0,0,1-.213.019.731.731,0,0,1-.563-.428c-.3-.466-.607-1.1-1.269-.824a1.739,1.739,0,0,0-.924,1.462c-.007.081,0,.164-.007.246q-.055-.7-.035,1.118c0,.042,0,.082,0,.123l-1.133-.119c-.221-.236-.453-.459-.694-.675,0-.289,0-.578,0-.866,0-.59,0-1.179-.008-1.768l-.005-.391a3.229,3.229,0,0,0-.012-.341,7.545,7.545,0,0,0-.66,2.131c-.019.122-.028.246-.04.369h-.278a3.73,3.73,0,0,0-.7-1.17c-.059-.066-.151-.2-.233-.236l-.061-.056-.115.17-.336.5a11.44,11.44,0,0,0-1.556-.657s-.019.845-.018.732c0,.241,0,.482,0,.724h-.644a13.63,13.63,0,0,1-.648-2.5,5.066,5.066,0,0,1-.017.733c-.007.589-.008,1.178-.008,1.767s0,1.179.008,1.768a5.1,5.1,0,0,0,.017.732,13.492,13.492,0,0,0,.682,2.606,13.259,13.259,0,0,0,.535,1.237c.028.057.057.115.086.172l.087-.128.2-.3.4-.6.807-1.192.066-.1a11.382,11.382,0,0,1,1.486.906,3.948,3.948,0,0,1,.165.646c0,.052.006.07.01.05.005.035.016.069.021.1a4.024,4.024,0,0,1,.015-.537V-154a11.015,11.015,0,0,1,1.385,1.205,10.833,10.833,0,0,1,.88,1.045c.019.025.145.235.168.233.043,0,.13-.275.146-.323a2.465,2.465,0,0,0,.106-.644c.025-.436.022-.875.027-1.314.016-.3.029-.575.042-.838a1.527,1.527,0,0,1,.79-.917c.632-.261.959.309,1.238.771.143.238.295.459.594.481a.559.559,0,0,0,.531-.229,2.151,2.151,0,0,0,.037-.8c0-.291,0-.583,0-.874a1.407,1.407,0,0,1,.315-.044,1.7,1.7,0,0,1,1.28.623,1.454,1.454,0,0,1,.194.306c.058.121.07.248.115.37a.661.661,0,0,0,.009.073.614.614,0,0,0,.078-.081,1.626,1.626,0,0,0,.121-.153,1.762,1.762,0,0,0,.208-.4,1.851,1.851,0,0,0,.107-.464c.016-.15.017-.3.02-.453.013-.627.013-1.255.013-1.882,0-.719,0-1.438-.007-2.156C385-160.722,385-160.986,384.982-161.248Zm-2.7-.379.006.09c0-.033,0-.057-.006-.083Z" transform="translate(-348.72 317.898)"/><path class="b" d="M426.406-256.2c3.24.023,6.475.049,9.7.06q1.182,0,2.361,0a7.994,7.994,0,0,0,.409-1.909c.06-.741.025-1.489.05-2.233a6.015,6.015,0,0,0-.466-2,2.732,2.732,0,0,1-.162-1.374q.087-.437.189-.868a4.17,4.17,0,0,0,.238-1.775,2.278,2.278,0,0,1-.062-.419c0-.492.02-.984.017-1.475a3.63,3.63,0,0,1,.275-1.613,8.37,8.37,0,0,1,1.348-1.905,1.018,1.018,0,0,0,.205-1.268.821.821,0,0,0-.175-.214c-.367-.316-.741-.622-1.106-.94a1.694,1.694,0,0,1-.731-1.115c-.03-.37-.061-.741-.082-1.111a3.157,3.157,0,0,0-.279-1.658.408.408,0,0,1-.026-.173c-.029-.278-.037-.56-.088-.835a3.045,3.045,0,0,1,.337-2.186,12.968,12.968,0,0,0,.641-1.274,1.151,1.151,0,0,0,.015-1.148,3.3,3.3,0,0,0-1.026-.927,11.813,11.813,0,0,0-1.781-.735.9.9,0,0,1-.512-.452c-.265-.472-.559-.928-.819-1.4a4.455,4.455,0,0,0-1.953-1.564c-.268-.153-.29-.135-.071-.371a2.355,2.355,0,0,1,.188-.171c.342-.293.689-.579,1.025-.878a1.429,1.429,0,0,0,.059-2.092,14.8,14.8,0,0,0-1.152-1.112,1.711,1.711,0,0,1-.5-.709,9.743,9.743,0,0,1-.128-1.516c-.021-.381,0-.765-.036-1.146a.815.815,0,0,0-.6-.816c-.18-.046-.355-.113-.537-.149-.533-.1-1.067-.206-1.6-.29-.21-.033-.273-.1-.206-.312.08-.258.108-.532.182-.792a.537.537,0,0,1,.19-.3,8.361,8.361,0,0,0,1.379-1.122,1.884,1.884,0,0,0,.563-1.3.9.9,0,0,0-.165-.568,5.073,5.073,0,0,0-.776-.873,1.188,1.188,0,0,1-.454-1.334,2.7,2.7,0,0,0-.126-1.915c-.032-.066-.067-.153-.126-.181a5.878,5.878,0,0,0-1.015-.454,8.9,8.9,0,0,0-2.851-.283,1.084,1.084,0,0,1-.2-.025,1.614,1.614,0,0,1,.083-.173,4.549,4.549,0,0,0,.726-2.131,18.562,18.562,0,0,1,.551-3.849c.252-.907.553-1.8.809-2.707a1.808,1.808,0,0,0-.1-1.452c-.117-.2-.193-.225-.334-.031a.617.617,0,0,1-.226.158,7.75,7.75,0,0,0-2.328,1.744c-.555.608-1.116,1.211-1.674,1.817a6.461,6.461,0,0,0-1.422,2.03.193.193,0,0,1-.161.078,15.693,15.693,0,0,0-1.866-.138,6.693,6.693,0,0,0-3.2.786,4.742,4.742,0,0,0-2.209,2.354,6.765,6.765,0,0,0-.394,3.591c.035.222-.023.292-.223.387a21.036,21.036,0,0,0-2.071,1.074,6.071,6.071,0,0,0-2.538,3.063,13.33,13.33,0,0,0-.7,3.967,6.527,6.527,0,0,0,.362,2.4.354.354,0,0,1-.052.4,16.447,16.447,0,0,0-2.91,4.845,8.3,8.3,0,0,0-.537,5.054.49.49,0,0,1-.112.36,7.613,7.613,0,0,0-1.579,3.1,6.56,6.56,0,0,0-.175,2.343c.071.588.189,1.17.3,1.752.1.54.222,1.075.325,1.614a.329.329,0,0,1-.067.22,12.193,12.193,0,0,0-.783,1.1,8.094,8.094,0,0,0-.957,4.616,1.557,1.557,0,0,1-.395,1.487,10.371,10.371,0,0,0-1.627,3.487,4.976,4.976,0,0,1-.515,1.318,7.521,7.521,0,0,0-.966,3.526c-.007.261,0,.518.019.773A160.248,160.248,0,0,1,426.406-256.2Z" transform="translate(-348.72 317.898)"/><path class="c" d="M417.614-276.494a1.4,1.4,0,0,0-1.364,1.43,1.2,1.2,0,0,0,1.214,1.177,1.391,1.391,0,0,0,1.366-1.364,1.227,1.227,0,0,0-1.211-1.243Zm-.44,1.034a.293.293,0,0,1-.293-.293.293.293,0,0,1,.293-.293.293.293,0,0,1,.293.293.293.293,0,0,1-.292.293Z" transform="translate(-348.72 317.898)"/><path class="c" d="M432.957-278.328a1.368,1.368,0,0,0-1.395,1.4,1.051,1.051,0,0,0,1.038,1.168,1.44,1.44,0,0,0,1.293-1.589A.953.953,0,0,0,432.957-278.328Zm-.552,1.111a.293.293,0,0,1-.293-.293.293.293,0,0,1,.293-.293.293.293,0,0,1,.293.293.294.294,0,0,1-.293.293Z" transform="translate(-348.72 317.898)"/><path class="a" d="M419.656-280.044a17.072,17.072,0,0,0-8.813,2.547,2.034,2.034,0,0,0-.863,1.463,5.143,5.143,0,0,0,2.145,4.108,5.642,5.642,0,0,0,6.182.62,6.124,6.124,0,0,0,3.614-5.5c-.039-.338-.074-.679-.12-1.019A2.3,2.3,0,0,0,419.656-280.044Zm-2.192,6.157a1.2,1.2,0,0,1-1.214-1.177,1.4,1.4,0,0,1,1.365-1.43,1.227,1.227,0,0,1,1.215,1.238v0A1.391,1.391,0,0,1,417.464-273.887Z" transform="translate(-348.72 317.898)"/><path class="a" d="M434.722-280.917a10.177,10.177,0,0,0-3-.348,41.246,41.246,0,0,0-4.886.488c-1.589.252-2.337.568-1.8,2.341a1.842,1.842,0,0,1,.046.34c-.1,2.224,1.2,3.676,2.888,4.773a6.575,6.575,0,0,0,2.527.888c2.364.37,4.691-2.228,5.206-3.861l.309-1.12a8.314,8.314,0,0,0,.071-.877C435.989-279.4,435.994-280.572,434.722-280.917Zm-2.122,5.16a1.05,1.05,0,0,1-1.038-1.168,1.368,1.368,0,0,1,1.395-1.4.954.954,0,0,1,.937.982A1.441,1.441,0,0,1,432.6-275.757Z" transform="translate(-348.72 317.898)"/><circle class="a" cx="68.455" cy="42.145" r="0.293"/><circle class="a" cx="83.685" cy="40.388" r="0.293"/><path class="b" d="M357.905-184.437a38.74,38.74,0,0,0,3.119,6.979l.271-.618a10.876,10.876,0,0,1,1.8,3.712l.169-1.095a11.163,11.163,0,0,1,1.891,3.8,1.509,1.509,0,0,1,.9-.965l.769,1.657a8.546,8.546,0,0,0,1.777-4.2,1.026,1.026,0,0,0,.86-1.2l1.4,1.954.828-1.049a8.059,8.059,0,0,1,2.821,1.616,8.17,8.17,0,0,0,1.765-2.506l1.53,1.77,2.713-3.3a.646.646,0,0,1,.446.578l1.155-2.752.694.764.343-3.909" transform="translate(-348.72 317.898)"/><path class="b" d="M401.049-181.487c1.773,1.643,2.365,4.165,2.871,6.529l.507-1.081.483,1.425.8-.649,1.726,2.885.245-4.224,1.189.973,1.534-2.331a1.291,1.291,0,0,1,.6-.58c.645-.214,1.121.595,1.706.94a1.826,1.826,0,0,0,2.245-.593,4.3,4.3,0,0,0,.734-2.386q2.471,3.6,5.162,7.042l2.413-3.325.76,1.215.029-1.974.628.5a11.1,11.1,0,0,0,1.052-3.171,4.839,4.839,0,0,1,3.443,1.839c.23.3.483.656.859.67.3.011.568-.218.869-.257s.638.372.381.533a7.876,7.876,0,0,0,2.279-2.853" transform="translate(-348.72 317.898)"/><path class="b" d="M417.036-213.046a5.6,5.6,0,0,1,2.5,5.822c-.026-.181.243-.28.4-.18a.729.729,0,0,1,.246.473l.523,2.253a8.031,8.031,0,0,1,.475-1.57,1.865,1.865,0,0,1,1.055-1.185c.527-.15,1.2.382.968.878a11.044,11.044,0,0,0,1.056-2.176l.5,1.073.5-.459,1.408,1.318a.394.394,0,0,0,.268.14c.117-.007.2-.115.264-.213a29.8,29.8,0,0,0,3.008-5.875" transform="translate(-348.72 317.898)"/><path class="b" d="M418.693-243.674a17.876,17.876,0,0,1,4.143,4.652c.25.465.677,1.045,1.163.837.285-.122.542-.506.807-.345a.5.5,0,0,1,.18.346l.417,1.919a32.461,32.461,0,0,1,2.8-3.4l.9,2.55,2.42-3.791,2.036,1.689c0-.4.528-.558.916-.477s.79.28,1.16.136a5.821,5.821,0,0,0,1.172-3.927" transform="translate(-348.72 317.898)"/><path class="b" d="M378.845-234.969a12.3,12.3,0,0,1,1.888,5.685,2.075,2.075,0,0,0,1.046-.477.735.735,0,0,1,.3.583l.432-1.9c.021.274.485.1.548-.166s.044-.627.3-.726a2.04,2.04,0,0,0,1-.927l.7,1.175c1.122-.669,1.521-2.073,1.825-3.343l.462.763a5.489,5.489,0,0,0,.4-2.241" transform="translate(-348.72 317.898)"/><path class="b" d="M472.7-235.365a39.567,39.567,0,0,1,1.661,9,1.768,1.768,0,0,1-.03-1.449c.265-.424,1.109-.365,1.1.135l.009-.916a.742.742,0,0,1,.722.243,14.062,14.062,0,0,0,1.549-2.519,1.99,1.99,0,0,0,.619.586,2.237,2.237,0,0,1,.934-1.153.755.755,0,0,0,.435.507.8.8,0,0,1,.651-.86q0-2.378.228-4.748" transform="translate(-348.72 317.898)"/><path class="b" d="M455.908-180.861a19.675,19.675,0,0,1,4.687,6.2,18.335,18.335,0,0,0,1.6-1.071,2.9,2.9,0,0,1,.167,1.565,1.921,1.921,0,0,1,.514-.936,12.06,12.06,0,0,0,.966,4.13,11.347,11.347,0,0,1,1.387-1.981l.413.638a32.933,32.933,0,0,1,1.5-3.486,1.293,1.293,0,0,1,.517.809,3.734,3.734,0,0,1,1.043-1.514,2.758,2.758,0,0,0,.851.878.946.946,0,0,0,1.137-.109c.135-.152.205-.367.38-.471.248-.149.581-.006.849-.114a.961.961,0,0,0,.435-.512A40.3,40.3,0,0,0,474-180.6" transform="translate(-348.72 317.898)"/><path class="b" d="M505.434-179.907a4.5,4.5,0,0,0,.708,1.8,5.865,5.865,0,0,1,.588,3.15l.876-.994,1.272,1.6a6.022,6.022,0,0,0,3.008-2.2,1.91,1.91,0,0,1,.457,1.1c.094.392.341.833.745.842.3.006.577-.244.877-.2.241.033.419.245.651.314a1.166,1.166,0,0,0,1-.371q1.2-.977,2.328-2.041l.736.813,1.593-.989a1.227,1.227,0,0,0,.353-.286,1.219,1.219,0,0,0,.18-.56l.467-3.132" transform="translate(-348.72 317.898)"/><path class="b" d="M507.14-244.426c1.081-.015,1.789,1.089,2.278,2.053l1.533,3.024q.382-.966.841-1.9l.249,1.86.051.383.388,2.915c.356-1.805,1.932-3.146,2.463-4.908a1.861,1.861,0,0,0,.577.66,16.689,16.689,0,0,1,3.09-4.874" transform="translate(-348.72 317.898)"/><path class="b" d="M542.457-181.2a3.173,3.173,0,0,1,1.9,3.121c.285-.4.812-.843,1.192-.532a.8.8,0,0,1,.22.363,3.3,3.3,0,0,1,.188,1.292c.32.123.5-.533.842-.473.167.03.244.221.292.383l.512,1.749a.939.939,0,0,1,1.415.178,8.3,8.3,0,0,0,1.049-2.919l.234.426a.943.943,0,0,1,.455-.517,1.364,1.364,0,0,0,2.178-.049c.487-.79.025-1.822.177-2.738" transform="translate(-348.72 317.898)"/><path class="b" d="M569.1-182.354q.741,3.464,1.772,6.857l.65-1.372.445,1.087,1.05-1.809a1.242,1.242,0,0,0,.457.486,2.04,2.04,0,0,0,.2-.932,4.42,4.42,0,0,0,.509,1.181,1.124,1.124,0,0,0,.509-.908c.464.178.744.647,1.151.933s1.147.238,1.212-.255a49.831,49.831,0,0,1,1.315,6.214q.353-2.817.963-5.592a.562.562,0,0,1,.176-.355c.214-.155.509.052.648.277s.256.509.511.582a4.165,4.165,0,0,0,.883-1.3,1.932,1.932,0,0,0,.78.621,14.228,14.228,0,0,0,1.759-4.583" transform="translate(-348.72 317.898)"/><path class="b" d="M595.705-180.6a9.823,9.823,0,0,1,.573,8.683,7.457,7.457,0,0,0,2.569-3.458l.448.705.529-1.533.745.332a16.261,16.261,0,0,0,2.722-5.823,15.982,15.982,0,0,0,3.75,5.04,2.53,2.53,0,0,0,.656-1.387l.456,1.081a4.1,4.1,0,0,1,.81-2.256,8.123,8.123,0,0,0,2,2.72,1.5,1.5,0,0,1,2.424-.883,25.244,25.244,0,0,0,.961,5.67l.269-1.594.531,1.621a13.768,13.768,0,0,0,1.875-7.419,4.4,4.4,0,0,0,1.846,1.091,1.516,1.516,0,0,0,1.776-.861l.461.691a8.122,8.122,0,0,0,2.64-3.861" transform="translate(-348.72 317.898)"/><path class="b" d="M610.889-243.255l2.078,3.654a3.49,3.49,0,0,1,.665,2.52v-.9a12.5,12.5,0,0,1,.551,1.763,15.936,15.936,0,0,0,1.369-3.269l1.048,1.867a11.485,11.485,0,0,0,1.329-2.014l.34.8a8.876,8.876,0,0,0,1.971-2.505" transform="translate(-348.72 317.898)"/><path class="a" d="M383-169.269a1.929,1.929,0,0,1,2.182,2.183v8.146A1.959,1.959,0,0,1,383-156.757h-18.33a1.958,1.958,0,0,0-2.182,2.182v2.327a1.991,1.991,0,0,0,2.182,2.183h12a1.928,1.928,0,0,1,2.182,2.182v8.146a1.958,1.958,0,0,1-2.182,2.182h-12a1.959,1.959,0,0,0-2.182,2.182v14.839a1.958,1.958,0,0,1-2.182,2.182h-8.583a1.991,1.991,0,0,1-2.183-2.182v-46.552a1.96,1.96,0,0,1,2.183-2.183Z" transform="translate(-348.72 317.898)"/><path class="a" d="M427.884-122.279a2.576,2.576,0,0,1-2.4,3.927h-8.292a1.774,1.774,0,0,1-1.674-1.018l-7.564-14.62a.744.744,0,0,0-.582-.364h-2.91a2.178,2.178,0,0,0-2.255,2.255v11.493a2.177,2.177,0,0,1-2.255,2.254h-8.146a2.177,2.177,0,0,1-2.255-2.254v-46.408a2.178,2.178,0,0,1,2.255-2.255h15.93c12.947,0,18.184,5.528,18.184,17.457,0,6.765-1.673,11.493-5.528,14.257a.771.771,0,0,0-.218.946Zm-23.422-34.478a2.178,2.178,0,0,0-2.255,2.255v5.382a2.178,2.178,0,0,0,2.255,2.255h3.71c3.491,0,5.237-.437,5.237-4.947s-1.746-4.945-5.237-4.945Z" transform="translate(-348.72 317.898)"/><path class="a" d="M465.418-169.269a1.929,1.929,0,0,1,2.182,2.183v8.146a1.959,1.959,0,0,1-2.182,2.183h-17.6a1.958,1.958,0,0,0-2.182,2.182v2.327a1.991,1.991,0,0,0,2.182,2.183H459.09a1.929,1.929,0,0,1,2.182,2.182v8.146a1.958,1.958,0,0,1-2.182,2.182H447.815a1.959,1.959,0,0,0-2.182,2.182v2.328a1.99,1.99,0,0,0,2.182,2.182h17.6a1.929,1.929,0,0,1,2.182,2.182v8.147a1.928,1.928,0,0,1-2.182,2.182h-30.55a1.991,1.991,0,0,1-2.183-2.182v-46.552a1.96,1.96,0,0,1,2.183-2.183Z" transform="translate(-348.72 317.898)"/><path class="a" d="M505.934-169.269a1.93,1.93,0,0,1,2.183,2.183v8.146a1.96,1.96,0,0,1-2.183,2.183h-17.6a1.958,1.958,0,0,0-2.182,2.182v2.327a1.991,1.991,0,0,0,2.182,2.183h11.274a1.928,1.928,0,0,1,2.182,2.182v8.146a1.958,1.958,0,0,1-2.182,2.182H488.332a1.959,1.959,0,0,0-2.182,2.182v2.328a1.99,1.99,0,0,0,2.182,2.182h17.6a1.929,1.929,0,0,1,2.183,2.182v8.147a1.929,1.929,0,0,1-2.183,2.182h-30.55a1.99,1.99,0,0,1-2.182-2.182v-46.552a1.959,1.959,0,0,1,2.182-2.183Z" transform="translate(-348.72 317.898)"/><path class="a" d="M548.2-130.863a1.929,1.929,0,0,1,2.182,2.182v8.147a1.958,1.958,0,0,1-2.182,2.182H512.046c-1.746,0-2.4-1.091-1.528-2.618l19.858-34.915c.291-.509.073-.872-.509-.872H515.973a1.992,1.992,0,0,1-2.182-2.183v-8.146a1.959,1.959,0,0,1,2.182-2.183h35.061c1.746,0,2.4,1.091,1.527,2.619L532.34-131.735c-.291.509-.073.872.509.872Z" transform="translate(-348.72 317.898)"/><path class="a" d="M589.369-169.269a1.929,1.929,0,0,1,2.182,2.183v8.146a1.959,1.959,0,0,1-2.182,2.183h-17.6a1.959,1.959,0,0,0-2.183,2.182v2.327a1.992,1.992,0,0,0,2.183,2.183H583.04a1.929,1.929,0,0,1,2.183,2.182v8.146a1.959,1.959,0,0,1-2.183,2.182H571.766a1.959,1.959,0,0,0-2.183,2.182v2.328a1.991,1.991,0,0,0,2.183,2.182h17.6a1.929,1.929,0,0,1,2.182,2.182v8.147a1.928,1.928,0,0,1-2.182,2.182h-30.55a1.991,1.991,0,0,1-2.183-2.182v-46.552a1.96,1.96,0,0,1,2.183-2.183Z" transform="translate(-348.72 317.898)"/><path class="a" d="M635.486-122.279a2.577,2.577,0,0,1-2.4,3.927h-8.292a1.773,1.773,0,0,1-1.673-1.018l-7.564-14.62a.744.744,0,0,0-.582-.364h-2.909a2.177,2.177,0,0,0-2.255,2.255v11.493a2.178,2.178,0,0,1-2.256,2.254h-8.146a2.178,2.178,0,0,1-2.255-2.254v-46.408a2.178,2.178,0,0,1,2.255-2.255h15.929c12.948,0,18.185,5.528,18.185,17.457,0,6.765-1.673,11.493-5.528,14.257a.771.771,0,0,0-.218.946Zm-23.421-34.478a2.177,2.177,0,0,0-2.255,2.255v5.382a2.178,2.178,0,0,0,2.255,2.255h3.709c3.491,0,5.237-.437,5.237-4.947s-1.746-4.945-5.237-4.945Z" transform="translate(-348.72 317.898)"/><path class="a" d="M380.432-232.91c-1.668.469-2.5-.59-2.752-2.944-.584-4.828-3.339-7.892-7.259-7.892a4.825,4.825,0,0,0-4.923,5.418c1.169,9.186,27.534,8.951,27.534,36.034,0,3.533-2.836,24.374-22.611,24.374-17.523,0-21.277-16.248-21.695-25.434-.085-2.119.666-3.413,2.168-3.888l9.43-2.943c1.668-.47,2.585.589,2.752,3.063.336,5.653,3.421,8.951,7.345,8.951,4.086,0,7.093-3.418,6.59-6.6-1.583-10.01-26.7-7.771-26.7-34.854-.081-3.534,1.42-24.379,20.112-24.379,17.189,0,21.195,15.782,21.694,24.259.085,2.119-.666,3.413-2.167,3.888Z" transform="translate(-348.72 317.898)"/><path class="a" d="M436.615-262.117q2.506,0,2.5,3.533v13.189c0,2.239-.833,3.534-2.5,3.534H416.422c-1.586,0-2.5,1.179-2.5,3.533v3.768c0,2.239.918,3.534,2.5,3.534h12.933c1.672,0,2.5,1.174,2.5,3.533V-214.3c0,2.234-.832,3.534-2.5,3.534H416.422c-1.586,0-2.5,1.174-2.5,3.528v3.769c0,2.239.918,3.533,2.5,3.533h20.193q2.506,0,2.5,3.533v13.19q0,3.531-2.5,3.533H401.569c-1.586,0-2.5-1.294-2.5-3.533v-75.367c0-2.354.917-3.533,2.5-3.533Z" transform="translate(-348.72 317.898)"/><path class="a" d="M444.734-235.619c0-7.772,1.169-28.617,20.947-28.617,17.774,0,20.526,16.842,20.859,25.908a3.055,3.055,0,0,1-1.834,3.3l-9.261,2.943c-1.753.47-3.088-1.179-3.34-3.653-.417-5.178-1.919-8.241-6.424-8.241-6.176,0-6.594,5.532-6.594,14.6v16.957c0,9.066.418,14.6,6.594,14.6,4.59,0,5.84-3.059,6.339-8.476.252-2.474,1.587-4,3.255-3.414l9.431,2.944c1.168.35,1.919,1.644,1.834,3.413-.333,8.951-3.085,25.789-20.859,25.789-19.778,0-20.947-20.841-20.947-28.617Z" transform="translate(-348.72 317.898)"/><path class="a" d="M533.377-206.182c0,7.776-1.168,28.617-20.943,28.617s-20.948-20.841-20.948-28.617v-29.437c0-7.772,1.169-28.617,20.948-28.617s20.943,20.845,20.943,28.617Zm-14.353-23.2c0-9.071-.418-14.6-6.59-14.6s-6.594,5.532-6.594,14.6v16.957c0,9.066.417,14.6,6.594,14.6s6.59-5.533,6.59-14.6Z" transform="translate(-348.72 317.898)"/><path class="a" d="M555.683-262.117c1.417,0,2.334.824,2.918,2.708l11.35,39.213c.333,1.064,1,.825,1-.35v-38.038c0-2.354.917-3.533,2.5-3.533H582.8q2.5,0,2.5,3.533v75.367c0,2.239-.832,3.533-2.5,3.533H570.536c-1.42,0-2.338-.825-2.922-2.709L556.268-221.6c-.337-1.06-1-.825-1,.35v38.038c0,2.239-.835,3.533-2.5,3.533h-9.346c-1.587,0-2.5-1.294-2.5-3.533v-75.367c0-2.354.917-3.533,2.5-3.533Z" transform="translate(-348.72 317.898)"/><path class="a" d="M614.788-262.117c15.688,0,20.862,8.951,20.862,28.262v25.789c0,19.316-5.174,28.382-20.862,28.382H596.181c-1.586,0-2.5-1.294-2.5-3.533v-75.247c0-2.359.836-3.533,2.5-3.653Zm.251,62.177c4,0,6.01-.94,6.01-8.006v-25.909c0-7.3-2-8.006-6.01-8.006h-4.5c-1.586,0-2.5,1.179-2.5,3.533v34.855c0,2.239.917,3.533,2.5,3.533Z" transform="translate(-348.72 317.898)"/></svg>